<svg width="943" height="226" viewBox="0 0 943 226" fill="none" xmlns="http://www.w3.org/2000/svg">
<path d="M0.34375 6.77648V152.786C0.34375 169.898 9.80269 185.54 24.777 193.193L85.7793 224.367C86.7565 224.867 87.8243 225.105 88.8878 225.081V149.714C70.2458 149.714 55.1335 133.827 55.1335 114.229C55.1335 94.6303 88.8878 61 88.8878 61L88.744 0H6.97377C3.31212 0 0.34375 3.03394 0.34375 6.77648Z" fill="#0066CC"/>
<path d="M177.144 6.77648C177.144 3.03394 174.176 0 170.514 0H88.744L88.8878 61C88.8878 61 122.642 94.6303 122.642 114.229C122.642 133.827 107.53 149.714 88.8878 149.714V225.081C89.8555 225.06 90.8196 224.822 91.7087 224.367L152.712 193.193C167.685 185.54 177.144 169.898 177.144 152.786V6.77648Z" fill="#23D237"/>
<path d="M284.209 4.36363H313.01V78.1534C312.975 85.161 311.205 91.3277 307.702 96.6534C304.233 101.944 299.433 106.079 293.301 109.057C287.204 112 280.179 113.472 272.226 113.472C265.323 113.472 259.016 112.28 253.305 109.898C247.594 107.48 243.039 103.696 239.64 98.5455C236.242 93.3598 234.56 86.6326 234.595 78.3636H263.817C263.922 81.0615 264.377 83.339 265.183 85.196C266.024 87.053 267.18 88.4545 268.652 89.4006C270.158 90.3116 271.98 90.767 274.118 90.767C276.29 90.767 278.112 90.294 279.584 89.348C281.09 88.402 282.229 87.0005 283 85.1435C283.771 83.2514 284.174 80.9214 284.209 78.1534V4.36363Z" fill="white"/>
<path d="M428.171 58.1818C428.171 70.1648 425.841 80.2732 421.181 88.5071C416.521 96.706 410.232 102.925 402.313 107.165C394.395 111.369 385.565 113.472 375.825 113.472C366.014 113.472 357.149 111.352 349.231 107.112C341.347 102.838 335.076 96.6008 330.416 88.402C325.791 80.1681 323.478 70.0947 323.478 58.1818C323.478 46.1989 325.791 36.108 330.416 27.9091C335.076 19.6752 341.347 13.456 349.231 9.25142C357.149 5.01183 366.014 2.89204 375.825 2.89204C385.565 2.89204 394.395 5.01183 402.313 9.25142C410.232 13.456 416.521 19.6752 421.181 27.9091C425.841 36.108 428.171 46.1989 428.171 58.1818ZM398.109 58.1818C398.109 51.7348 397.25 46.304 395.533 41.8892C393.852 37.4394 391.346 34.0758 388.018 31.7983C384.724 29.4858 380.66 28.3295 375.825 28.3295C370.989 28.3295 366.908 29.4858 363.579 31.7983C360.285 34.0758 357.78 37.4394 356.063 41.8892C354.381 46.304 353.541 51.7348 353.541 58.1818C353.541 64.6288 354.381 70.0772 356.063 74.527C357.78 78.9418 360.285 82.3054 363.579 84.6179C366.908 86.8954 370.989 88.0341 375.825 88.0341C380.66 88.0341 384.724 86.8954 388.018 84.6179C391.346 82.3054 393.852 78.9418 395.533 74.527C397.25 70.0772 398.109 64.6288 398.109 58.1818Z" fill="white"/>
<path d="M531.862 4.36363V112H507.476L468.584 55.4489H467.953V112H438.732V4.36363H463.538L501.8 60.7045H502.641V4.36363H531.862Z" fill="white"/>
<path d="M542.725 112V4.36363H620.298V27.9091H571.946V46.4091H616.304V69.9545H571.946V88.4545H620.088V112H542.725Z" fill="white"/>
<path d="M689.854 38C689.573 34.4962 688.26 31.7633 685.912 29.8011C683.599 27.839 680.078 26.858 675.348 26.858C672.335 26.858 669.865 27.2258 667.938 27.9616C666.046 28.6624 664.644 29.6259 663.733 30.8523C662.822 32.0786 662.349 33.4801 662.314 35.0568C662.244 36.3532 662.472 37.527 662.997 38.5781C663.558 39.5942 664.434 40.5227 665.625 41.3636C666.816 42.1695 668.341 42.9053 670.198 43.571C672.055 44.2367 674.262 44.8324 676.82 45.358L685.649 47.25C691.606 48.5114 696.704 50.1757 700.943 52.2429C705.183 54.3101 708.652 56.7453 711.349 59.5483C714.047 62.3163 716.027 65.4347 717.288 68.9034C718.585 72.3722 719.251 76.1562 719.286 80.2557C719.251 87.3333 717.481 93.3248 713.977 98.2301C710.474 103.135 705.463 106.867 698.946 109.425C692.464 111.982 684.668 113.261 675.558 113.261C666.203 113.261 658.039 111.877 651.067 109.109C644.129 106.341 638.734 102.084 634.879 96.3381C631.06 90.5568 629.133 83.1638 629.098 74.1591H656.848C657.023 77.4526 657.847 80.2206 659.318 82.4631C660.79 84.7055 662.857 86.4048 665.52 87.5611C668.218 88.7173 671.424 89.2955 675.138 89.2955C678.256 89.2955 680.867 88.91 682.969 88.1392C685.071 87.3684 686.665 86.2997 687.751 84.9332C688.838 83.5668 689.398 82.0076 689.433 80.2557C689.398 78.6089 688.855 77.1723 687.804 75.946C686.788 74.6847 685.106 73.5634 682.759 72.5824C680.411 71.5663 677.24 70.6203 673.246 69.7443L662.524 67.4318C652.994 65.3646 645.478 61.9133 639.977 57.0781C634.511 52.2079 631.796 45.5682 631.831 37.1591C631.796 30.3267 633.618 24.3527 637.297 19.2372C641.011 14.0866 646.144 10.0748 652.696 7.2017C659.283 4.32859 666.834 2.89204 675.348 2.89204C684.037 2.89204 691.553 4.34611 697.895 7.25426C704.237 10.1624 709.125 14.2618 712.558 19.5526C716.027 24.8082 717.779 30.9574 717.814 38H689.854Z" fill="white"/>
<path d="M827.93 44.7273H798.288C798.078 42.2746 797.517 40.0497 796.606 38.0526C795.73 36.0554 794.504 34.3385 792.927 32.902C791.385 31.4304 789.511 30.3092 787.304 29.5383C785.096 28.7325 782.591 28.3295 779.788 28.3295C774.883 28.3295 770.731 29.5208 767.332 31.9034C763.968 34.286 761.411 37.7022 759.659 42.152C757.942 46.6018 757.083 51.9451 757.083 58.1818C757.083 64.7689 757.959 70.2874 759.711 74.7372C761.498 79.152 764.073 82.4806 767.437 84.723C770.801 86.9304 774.848 88.0341 779.578 88.0341C782.276 88.0341 784.693 87.7012 786.831 87.0355C788.968 86.3347 790.825 85.3362 792.402 84.0398C793.978 82.7434 795.257 81.1842 796.238 79.3622C797.254 77.5052 797.938 75.4205 798.288 73.108L827.93 73.3182C827.58 77.8731 826.301 82.5156 824.093 87.2457C821.886 91.9408 818.75 96.2855 814.686 100.28C810.656 104.239 805.663 107.428 799.707 109.845C793.751 112.263 786.831 113.472 778.947 113.472C769.066 113.472 760.202 111.352 752.353 107.112C744.54 102.873 738.356 96.6359 733.801 88.402C729.281 80.1681 727.021 70.0947 727.021 58.1818C727.021 46.1989 729.333 36.108 733.958 27.9091C738.583 19.6752 744.82 13.456 752.669 9.25142C760.517 5.01183 769.277 2.89204 778.947 2.89204C785.744 2.89204 791.999 3.82054 797.71 5.67755C803.421 7.53456 808.431 10.25 812.741 13.8239C817.051 17.3627 820.519 21.7249 823.147 26.9105C825.775 32.0961 827.369 38.035 827.93 44.7273Z" fill="white"/>
<path d="M942.5 58.1818C942.5 70.1648 940.17 80.2732 935.51 88.5071C930.85 96.706 924.561 102.925 916.642 107.165C908.724 111.369 899.894 113.472 890.154 113.472C880.343 113.472 871.478 111.352 863.56 107.112C855.676 102.838 849.404 96.6008 844.744 88.402C840.119 80.1681 837.807 70.0947 837.807 58.1818C837.807 46.1989 840.119 36.108 844.744 27.9091C849.404 19.6752 855.676 13.456 863.56 9.25142C871.478 5.01183 880.343 2.89204 890.154 2.89204C899.894 2.89204 908.724 5.01183 916.642 9.25142C924.561 13.456 930.85 19.6752 935.51 27.9091C940.17 36.108 942.5 46.1989 942.5 58.1818ZM912.438 58.1818C912.438 51.7348 911.579 46.304 909.862 41.8892C908.181 37.4394 905.675 34.0758 902.347 31.7983C899.053 29.4858 894.989 28.3295 890.154 28.3295C885.318 28.3295 881.236 29.4858 877.908 31.7983C874.614 34.0758 872.109 37.4394 870.392 41.8892C868.71 46.304 867.869 51.7348 867.869 58.1818C867.869 64.6288 868.71 70.0772 870.392 74.527C872.109 78.9418 874.614 82.3054 877.908 84.6179C881.236 86.8954 885.318 88.0341 890.154 88.0341C894.989 88.0341 899.053 86.8954 902.347 84.6179C905.675 82.3054 908.181 78.9418 909.862 74.527C911.579 70.0772 912.438 64.6288 912.438 58.1818Z" fill="white"/>
<path d="M270.378 222.736C267.649 222.736 265.379 222.291 263.57 221.402C261.761 220.482 260.335 219.163 259.292 217.446C258.249 215.729 257.498 213.659 257.038 211.236C256.609 208.813 256.394 206.084 256.394 203.048L266.146 202.128C266.146 203.6 266.192 205.026 266.284 206.406C266.407 207.755 266.606 208.982 266.882 210.086C267.189 211.159 267.618 212.018 268.17 212.662C268.753 213.306 269.489 213.628 270.378 213.628C271.85 213.628 272.893 212.953 273.506 211.604C274.119 210.224 274.426 208.568 274.426 206.636C274.426 204.704 273.92 202.695 272.908 200.61C271.896 198.525 270.685 196.547 269.274 194.676C266.882 191.487 264.781 188.527 262.972 185.798C261.193 183.069 259.798 180.385 258.786 177.748C257.805 175.111 257.314 172.351 257.314 169.468C257.314 167.199 257.605 165.113 258.188 163.212C258.771 161.28 259.614 159.609 260.718 158.198C261.853 156.757 263.217 155.637 264.812 154.84C266.407 154.043 268.231 153.644 270.286 153.644C272.831 153.644 274.978 154.073 276.726 154.932C278.505 155.791 279.931 157.017 281.004 158.612C282.108 160.207 282.905 162.108 283.396 164.316C283.917 166.493 284.178 168.916 284.178 171.584L274.426 172.504C274.426 171.369 274.365 170.235 274.242 169.1C274.15 167.935 273.966 166.877 273.69 165.926C273.414 164.975 273.015 164.209 272.494 163.626C271.973 163.043 271.298 162.752 270.47 162.752C269.182 162.752 268.293 163.304 267.802 164.408C267.311 165.481 267.066 167.015 267.066 169.008C267.066 171.584 267.756 174.068 269.136 176.46C270.516 178.852 272.371 181.643 274.702 184.832C277.493 188.604 279.762 192.069 281.51 195.228C283.289 198.387 284.178 201.883 284.178 205.716C284.178 208.139 283.917 210.393 283.396 212.478C282.875 214.533 282.047 216.327 280.912 217.86C279.808 219.393 278.382 220.589 276.634 221.448C274.917 222.307 272.831 222.736 270.378 222.736Z" fill="#23D237"/>
<path d="M287.664 222V154.38H310.388V164.592H297.6V182.808H306.8V192.744H297.6V211.788H310.388V222H287.664Z" fill="#23D237"/>
<path d="M314.031 222L324.243 154.38H336.387L346.599 222H336.939L335.099 208.2H325.531L323.691 222H314.031ZM326.911 197.712H333.719L330.867 174.988L330.591 171.4H330.039L329.763 174.988L326.911 197.712Z" fill="#23D237"/>
<path d="M350.019 222V154.38H362.623L368.051 189.432L368.511 193.02H368.695L369.155 189.432L374.583 154.38H387.187V222H377.987V176.644H377.435L377.067 179.496L371.179 222H366.027L360.139 179.496L359.771 176.644H359.219V222H350.019Z" fill="#23D237"/>
<path d="M392.742 222V154.38H402.678V212.8H415.834V222H392.742Z" fill="#23D237"/>
<path d="M418.034 222V154.38H440.758V164.592H427.97V182.808H437.17V192.744H427.97V211.788H440.758V222H418.034Z" fill="#23D237"/>
<path d="M458.252 222.736C455.523 222.736 453.253 222.291 451.444 221.402C449.635 220.482 448.209 219.163 447.166 217.446C446.123 215.729 445.372 213.659 444.912 211.236C444.483 208.813 444.268 206.084 444.268 203.048L454.02 202.128C454.02 203.6 454.066 205.026 454.158 206.406C454.281 207.755 454.48 208.982 454.756 210.086C455.063 211.159 455.492 212.018 456.044 212.662C456.627 213.306 457.363 213.628 458.252 213.628C459.724 213.628 460.767 212.953 461.38 211.604C461.993 210.224 462.3 208.568 462.3 206.636C462.3 204.704 461.794 202.695 460.782 200.61C459.77 198.525 458.559 196.547 457.148 194.676C454.756 191.487 452.655 188.527 450.846 185.798C449.067 183.069 447.672 180.385 446.66 177.748C445.679 175.111 445.188 172.351 445.188 169.468C445.188 167.199 445.479 165.113 446.062 163.212C446.645 161.28 447.488 159.609 448.592 158.198C449.727 156.757 451.091 155.637 452.686 154.84C454.281 154.043 456.105 153.644 458.16 153.644C460.705 153.644 462.852 154.073 464.6 154.932C466.379 155.791 467.805 157.017 468.878 158.612C469.982 160.207 470.779 162.108 471.27 164.316C471.791 166.493 472.052 168.916 472.052 171.584L462.3 172.504C462.3 171.369 462.239 170.235 462.116 169.1C462.024 167.935 461.84 166.877 461.564 165.926C461.288 164.975 460.889 164.209 460.368 163.626C459.847 163.043 459.172 162.752 458.344 162.752C457.056 162.752 456.167 163.304 455.676 164.408C455.185 165.481 454.94 167.015 454.94 169.008C454.94 171.584 455.63 174.068 457.01 176.46C458.39 178.852 460.245 181.643 462.576 184.832C465.367 188.604 467.636 192.069 469.384 195.228C471.163 198.387 472.052 201.883 472.052 205.716C472.052 208.139 471.791 210.393 471.27 212.478C470.749 214.533 469.921 216.327 468.786 217.86C467.682 219.393 466.256 220.589 464.508 221.448C462.791 222.307 460.705 222.736 458.252 222.736Z" fill="#23D237"/>
<path d="M487.498 222.736C484.769 222.736 482.499 222.291 480.69 221.402C478.881 220.482 477.455 219.163 476.412 217.446C475.369 215.729 474.618 213.659 474.158 211.236C473.729 208.813 473.514 206.084 473.514 203.048L483.266 202.128C483.266 203.6 483.312 205.026 483.404 206.406C483.527 207.755 483.726 208.982 484.002 210.086C484.309 211.159 484.738 212.018 485.29 212.662C485.873 213.306 486.609 213.628 487.498 213.628C488.97 213.628 490.013 212.953 490.626 211.604C491.239 210.224 491.546 208.568 491.546 206.636C491.546 204.704 491.04 202.695 490.028 200.61C489.016 198.525 487.805 196.547 486.394 194.676C484.002 191.487 481.901 188.527 480.092 185.798C478.313 183.069 476.918 180.385 475.906 177.748C474.925 175.111 474.434 172.351 474.434 169.468C474.434 167.199 474.725 165.113 475.308 163.212C475.891 161.28 476.734 159.609 477.838 158.198C478.973 156.757 480.337 155.637 481.932 154.84C483.527 154.043 485.351 153.644 487.406 153.644C489.951 153.644 492.098 154.073 493.846 154.932C495.625 155.791 497.051 157.017 498.124 158.612C499.228 160.207 500.025 162.108 500.516 164.316C501.037 166.493 501.298 168.916 501.298 171.584L491.546 172.504C491.546 171.369 491.485 170.235 491.362 169.1C491.27 167.935 491.086 166.877 490.81 165.926C490.534 164.975 490.135 164.209 489.614 163.626C489.093 163.043 488.418 162.752 487.59 162.752C486.302 162.752 485.413 163.304 484.922 164.408C484.431 165.481 484.186 167.015 484.186 169.008C484.186 171.584 484.876 174.068 486.256 176.46C487.636 178.852 489.491 181.643 491.822 184.832C494.613 188.604 496.882 192.069 498.63 195.228C500.409 198.387 501.298 201.883 501.298 205.716C501.298 208.139 501.037 210.393 500.516 212.478C499.995 214.533 499.167 216.327 498.032 217.86C496.928 219.393 495.502 220.589 493.754 221.448C492.037 222.307 489.951 222.736 487.498 222.736Z" fill="#23D237"/>
<path d="M528.363 222.736C525.634 222.736 523.411 222.092 521.693 220.804C519.976 219.516 518.703 217.768 517.875 215.56C517.078 213.352 516.679 210.868 516.679 208.108V168.272C516.679 165.543 517.216 163.074 518.289 160.866C519.363 158.658 520.896 156.91 522.889 155.622C524.883 154.303 527.229 153.644 529.927 153.644C531.982 153.644 533.822 154.027 535.447 154.794C537.103 155.53 538.499 156.573 539.633 157.922C540.799 159.271 541.673 160.835 542.255 162.614C542.869 164.362 543.175 166.248 543.175 168.272V178.668H533.239V168.272C533.239 166.923 532.994 165.757 532.503 164.776C532.013 163.795 531.154 163.304 529.927 163.304C528.731 163.304 527.873 163.825 527.351 164.868C526.861 165.88 526.615 167.015 526.615 168.272V208.936C526.615 210.255 526.876 211.42 527.397 212.432C527.919 213.413 528.762 213.904 529.927 213.904C531.154 213.904 532.013 213.413 532.503 212.432C532.994 211.42 533.239 210.255 533.239 208.936V197.62H529.283V188.328H543.175V222H537.287L536.091 218.32C535.233 219.7 534.129 220.789 532.779 221.586C531.461 222.353 529.989 222.736 528.363 222.736Z" fill="#23D237"/>
<path d="M561.969 222.736C559.179 222.736 556.786 222.092 554.793 220.804C552.831 219.516 551.328 217.768 550.285 215.56C549.242 213.352 548.721 210.868 548.721 208.108V154.38H558.657V208.108C558.657 209.427 558.918 210.592 559.439 211.604C559.961 212.585 560.804 213.076 561.969 213.076C563.196 213.076 564.055 212.585 564.545 211.604C565.036 210.592 565.281 209.427 565.281 208.108V154.38H575.217V208.108C575.217 210.868 574.68 213.352 573.607 215.56C572.565 217.768 571.047 219.516 569.053 220.804C567.091 222.092 564.729 222.736 561.969 222.736Z" fill="#23D237"/>
<path d="M587.376 222V164.592H577.992V154.38H606.696V164.592H597.312V222H587.376Z" fill="#23D237"/>
<path d="M616.802 222V164.592H607.418V154.38H636.122V164.592H626.738V222H616.802Z" fill="#23D237"/>
<path d="M638.885 222V154.38H661.609V164.592H648.821V182.808H658.021V192.744H648.821V211.788H661.609V222H638.885Z" fill="#23D237"/>
<path d="M667.142 222V154.38H677.078C683.028 154.38 687.413 156.036 690.234 159.348C693.056 162.629 694.466 167.475 694.466 173.884C694.466 177.687 693.792 180.983 692.442 183.774C691.124 186.534 689.514 188.558 687.612 189.846L694.374 222H684.438L678.826 193.48H677.078V222H667.142ZM677.078 184.28C678.918 184.28 680.375 183.881 681.448 183.084C682.522 182.256 683.288 181.091 683.748 179.588C684.208 178.085 684.438 176.307 684.438 174.252C684.438 171.032 683.902 168.563 682.828 166.846C681.786 165.098 679.869 164.224 677.078 164.224V184.28Z" fill="#23D237"/>
<path d="M722.501 222.736C719.771 222.736 717.502 222.291 715.693 221.402C713.883 220.482 712.457 219.163 711.415 217.446C710.372 215.729 709.621 213.659 709.161 211.236C708.731 208.813 708.517 206.084 708.517 203.048L718.269 202.128C718.269 203.6 718.315 205.026 718.407 206.406C718.529 207.755 718.729 208.982 719.005 210.086C719.311 211.159 719.741 212.018 720.293 212.662C720.875 213.306 721.611 213.628 722.501 213.628C723.973 213.628 725.015 212.953 725.629 211.604C726.242 210.224 726.549 208.568 726.549 206.636C726.549 204.704 726.043 202.695 725.031 200.61C724.018 198.525 722.807 196.547 721.397 194.676C719.005 191.487 716.904 188.527 715.095 185.798C713.316 183.069 711.921 180.385 710.909 177.748C709.927 175.111 709.437 172.351 709.437 169.468C709.437 167.199 709.728 165.113 710.311 163.212C710.893 161.28 711.737 159.609 712.841 158.198C713.975 156.757 715.34 155.637 716.935 154.84C718.529 154.043 720.354 153.644 722.409 153.644C724.954 153.644 727.101 154.073 728.849 154.932C730.627 155.791 732.053 157.017 733.127 158.612C734.231 160.207 735.028 162.108 735.519 164.316C736.04 166.493 736.301 168.916 736.301 171.584L726.549 172.504C726.549 171.369 726.487 170.235 726.365 169.1C726.273 167.935 726.089 166.877 725.813 165.926C725.537 164.975 725.138 164.209 724.617 163.626C724.095 163.043 723.421 162.752 722.593 162.752C721.305 162.752 720.415 163.304 719.925 164.408C719.434 165.481 719.189 167.015 719.189 169.008C719.189 171.584 719.879 174.068 721.259 176.46C722.639 178.852 724.494 181.643 726.825 184.832C729.615 188.604 731.885 192.069 733.633 195.228C735.411 198.387 736.301 201.883 736.301 205.716C736.301 208.139 736.04 210.393 735.519 212.478C734.997 214.533 734.169 216.327 733.035 217.86C731.931 219.393 730.505 220.589 728.757 221.448C727.039 222.307 724.954 222.736 722.501 222.736Z" fill="#23D237"/>
<path d="M747.606 222V193.204L737.486 154.38H747.238L752.115 176L752.436 178.944H752.712L753.034 176L757.91 154.38H767.662L757.542 193.204V222H747.606Z" fill="#23D237"/>
<path d="M782.879 222.736C780.15 222.736 777.88 222.291 776.071 221.402C774.262 220.482 772.836 219.163 771.793 217.446C770.75 215.729 769.999 213.659 769.539 211.236C769.11 208.813 768.895 206.084 768.895 203.048L778.647 202.128C778.647 203.6 778.693 205.026 778.785 206.406C778.908 207.755 779.107 208.982 779.383 210.086C779.69 211.159 780.119 212.018 780.671 212.662C781.254 213.306 781.99 213.628 782.879 213.628C784.351 213.628 785.394 212.953 786.007 211.604C786.62 210.224 786.927 208.568 786.927 206.636C786.927 204.704 786.421 202.695 785.409 200.61C784.397 198.525 783.186 196.547 781.775 194.676C779.383 191.487 777.282 188.527 775.473 185.798C773.694 183.069 772.299 180.385 771.287 177.748C770.306 175.111 769.815 172.351 769.815 169.468C769.815 167.199 770.107 165.113 770.689 163.212C771.272 161.28 772.115 159.609 773.219 158.198C774.354 156.757 775.718 155.637 777.313 154.84C778.908 154.043 780.732 153.644 782.787 153.644C785.332 153.644 787.479 154.073 789.227 154.932C791.006 155.791 792.432 157.017 793.505 158.612C794.609 160.207 795.406 162.108 795.897 164.316C796.419 166.493 796.679 168.916 796.679 171.584L786.927 172.504C786.927 171.369 786.866 170.235 786.743 169.1C786.651 167.935 786.467 166.877 786.191 165.926C785.915 164.975 785.516 164.209 784.995 163.626C784.474 163.043 783.799 162.752 782.971 162.752C781.683 162.752 780.794 163.304 780.303 164.408C779.812 165.481 779.567 167.015 779.567 169.008C779.567 171.584 780.257 174.068 781.637 176.46C783.017 178.852 784.872 181.643 787.203 184.832C789.994 188.604 792.263 192.069 794.011 195.228C795.79 198.387 796.679 201.883 796.679 205.716C796.679 208.139 796.419 210.393 795.897 212.478C795.376 214.533 794.548 216.327 793.413 217.86C792.309 219.393 790.883 220.589 789.135 221.448C787.418 222.307 785.332 222.736 782.879 222.736Z" fill="#23D237"/>
<path d="M806.789 222V164.592H797.405V154.38H826.109V164.592H816.725V222H806.789Z" fill="#23D237"/>
<path d="M828.872 222V154.38H851.596V164.592H838.808V182.808H848.008V192.744H838.808V211.788H851.596V222H828.872Z" fill="#23D237"/>
<path d="M857.13 222V154.38H869.734L875.162 189.432L875.622 193.02H875.806L876.266 189.432L881.694 154.38H894.298V222H885.098V176.644H884.546L884.178 179.496L878.29 222H873.138L867.25 179.496L866.882 176.644H866.33V222H857.13Z" fill="#23D237"/>
<path d="M911.812 222.736C909.083 222.736 906.813 222.291 905.004 221.402C903.195 220.482 901.769 219.163 900.726 217.446C899.683 215.729 898.932 213.659 898.472 211.236C898.043 208.813 897.828 206.084 897.828 203.048L907.58 202.128C907.58 203.6 907.626 205.026 907.718 206.406C907.841 207.755 908.04 208.982 908.316 210.086C908.623 211.159 909.052 212.018 909.604 212.662C910.187 213.306 910.923 213.628 911.812 213.628C913.284 213.628 914.327 212.953 914.94 211.604C915.553 210.224 915.86 208.568 915.86 206.636C915.86 204.704 915.354 202.695 914.342 200.61C913.33 198.525 912.119 196.547 910.708 194.676C908.316 191.487 906.215 188.527 904.406 185.798C902.627 183.069 901.232 180.385 900.22 177.748C899.239 175.111 898.748 172.351 898.748 169.468C898.748 167.199 899.039 165.113 899.622 163.212C900.205 161.28 901.048 159.609 902.152 158.198C903.287 156.757 904.651 155.637 906.246 154.84C907.841 154.043 909.665 153.644 911.72 153.644C914.265 153.644 916.412 154.073 918.16 154.932C919.939 155.791 921.365 157.017 922.438 158.612C923.542 160.207 924.339 162.108 924.83 164.316C925.352 166.493 925.612 168.916 925.612 171.584L915.86 172.504C915.86 171.369 915.799 170.235 915.676 169.1C915.584 167.935 915.4 166.877 915.124 165.926C914.848 164.975 914.449 164.209 913.928 163.626C913.407 163.043 912.732 162.752 911.904 162.752C910.616 162.752 909.727 163.304 909.236 164.408C908.745 165.481 908.5 167.015 908.5 169.008C908.5 171.584 909.19 174.068 910.57 176.46C911.95 178.852 913.805 181.643 916.136 184.832C918.927 188.604 921.196 192.069 922.944 195.228C924.723 198.387 925.612 201.883 925.612 205.716C925.612 208.139 925.352 210.393 924.83 212.478C924.309 214.533 923.481 216.327 922.346 217.86C921.242 219.393 919.816 220.589 918.068 221.448C916.351 222.307 914.265 222.736 911.812 222.736Z" fill="#23D237"/>
</svg>
