<svg width="976" height="261" viewBox="0 0 976 261" fill="none" xmlns="http://www.w3.org/2000/svg">
<path d="M0.34375 31.7765V177.786C0.34375 194.898 9.80269 210.54 24.777 218.193L85.7793 249.367C86.7565 249.867 87.8243 250.105 88.8878 250.081V174.714C70.2458 174.714 55.1335 158.827 55.1335 139.229C55.1335 119.63 88.8878 86 88.8878 86L88.744 25H6.97377C3.31212 25 0.34375 28.0339 0.34375 31.7765Z" fill="#0066CC"/>
<path d="M177.144 31.7765C177.144 28.0339 174.176 25 170.514 25H88.744L88.8878 86C88.8878 86 122.642 119.63 122.642 139.229C122.642 158.827 107.53 174.714 88.8878 174.714V250.081C89.8555 250.06 90.8196 249.822 91.7087 249.367L152.712 218.193C167.685 210.54 177.144 194.898 177.144 177.786V31.7765Z" fill="white"/>
<path d="M283.523 29.3636H312.324V103.153C312.289 110.161 310.52 116.328 307.016 121.653C303.548 126.944 298.747 131.079 292.616 134.057C286.519 137 279.494 138.472 271.54 138.472C264.638 138.472 258.331 137.28 252.62 134.898C246.909 132.48 242.354 128.696 238.955 123.545C235.557 118.36 233.875 111.633 233.91 103.364H263.131C263.236 106.062 263.692 108.339 264.498 110.196C265.339 112.053 266.495 113.455 267.967 114.401C269.473 115.312 271.295 115.767 273.432 115.767C275.605 115.767 277.427 115.294 278.898 114.348C280.405 113.402 281.544 112 282.315 110.143C283.085 108.251 283.488 105.921 283.523 103.153V29.3636ZM427.486 83.1818C427.486 95.1648 425.156 105.273 420.496 113.507C415.836 121.706 409.547 127.925 401.628 132.165C393.709 136.369 384.88 138.472 375.139 138.472C365.329 138.472 356.464 136.352 348.546 132.112C340.662 127.838 334.39 121.601 329.73 113.402C325.105 105.168 322.793 95.0947 322.793 83.1818C322.793 71.1989 325.105 61.108 329.73 52.9091C334.39 44.6752 340.662 38.456 348.546 34.2514C356.464 30.0118 365.329 27.892 375.139 27.892C384.88 27.892 393.709 30.0118 401.628 34.2514C409.547 38.456 415.836 44.6752 420.496 52.9091C425.156 61.108 427.486 71.1989 427.486 83.1818ZM397.423 83.1818C397.423 76.7348 396.565 71.304 394.848 66.8892C393.166 62.4394 390.661 59.0758 387.333 56.7983C384.039 54.4858 379.975 53.3295 375.139 53.3295C370.304 53.3295 366.222 54.4858 362.894 56.7983C359.6 59.0758 357.095 62.4394 355.378 66.8892C353.696 71.304 352.855 76.7348 352.855 83.1818C352.855 89.6288 353.696 95.0772 355.378 99.527C357.095 103.942 359.6 107.305 362.894 109.618C366.222 111.895 370.304 113.034 375.139 113.034C379.975 113.034 384.039 111.895 387.333 109.618C390.661 107.305 393.166 103.942 394.848 99.527C396.565 95.0772 397.423 89.6288 397.423 83.1818ZM531.177 29.3636V137H506.791L467.898 80.4489H467.268V137H438.046V29.3636H462.853L501.114 85.7045H501.955V29.3636H531.177ZM542.039 137V29.3636H619.613V52.9091H571.261V71.4091H615.619V94.9545H571.261V113.455H619.403V137H542.039ZM689.168 63C688.888 59.4962 687.574 56.7633 685.227 54.8011C682.914 52.839 679.393 51.8579 674.663 51.8579C671.65 51.8579 669.179 52.2258 667.252 52.9616C665.36 53.6624 663.959 54.6259 663.048 55.8523C662.137 57.0786 661.664 58.4801 661.629 60.0568C661.559 61.3532 661.786 62.527 662.312 63.5781C662.873 64.5942 663.748 65.5227 664.94 66.3636C666.131 67.1695 667.655 67.9053 669.512 68.571C671.369 69.2367 673.577 69.8324 676.134 70.358L684.964 72.25C690.92 73.5114 696.018 75.1757 700.258 77.2429C704.498 79.3101 707.966 81.7453 710.664 84.5483C713.362 87.3163 715.342 90.4347 716.603 93.9034C717.9 97.3722 718.565 101.156 718.6 105.256C718.565 112.333 716.796 118.325 713.292 123.23C709.788 128.135 704.778 131.867 698.261 134.425C691.779 136.982 683.983 138.261 674.873 138.261C665.518 138.261 657.354 136.877 650.382 134.109C643.444 131.341 638.048 127.084 634.194 121.338C630.375 115.557 628.448 108.164 628.413 99.1591H656.163C656.338 102.453 657.161 105.221 658.633 107.463C660.105 109.705 662.172 111.405 664.835 112.561C667.533 113.717 670.739 114.295 674.453 114.295C677.571 114.295 680.181 113.91 682.284 113.139C684.386 112.368 685.98 111.3 687.066 109.933C688.152 108.567 688.713 107.008 688.748 105.256C688.713 103.609 688.17 102.172 687.119 100.946C686.103 99.6847 684.421 98.5634 682.073 97.5824C679.726 96.5663 676.555 95.6203 672.56 94.7443L661.839 92.4318C652.309 90.3646 644.793 86.9133 639.292 82.0781C633.826 77.2079 631.111 70.5682 631.146 62.1591C631.111 55.3267 632.933 49.3527 636.612 44.2372C640.326 39.0866 645.459 35.0748 652.011 32.2017C658.598 29.3286 666.149 27.892 674.663 27.892C683.352 27.892 690.868 29.3461 697.21 32.2543C703.552 35.1624 708.439 39.2618 711.873 44.5526C715.342 49.8082 717.094 55.9574 717.129 63H689.168ZM827.245 69.7273H797.603C797.392 67.2746 796.832 65.0497 795.921 63.0526C795.045 61.0554 793.819 59.3385 792.242 57.902C790.7 56.4304 788.826 55.3092 786.618 54.5383C784.411 53.7325 781.906 53.3295 779.103 53.3295C774.197 53.3295 770.045 54.5208 766.647 56.9034C763.283 59.286 760.725 62.7022 758.973 67.152C757.257 71.6018 756.398 76.9451 756.398 83.1818C756.398 89.7689 757.274 95.2874 759.026 99.7372C760.813 104.152 763.388 107.481 766.752 109.723C770.115 111.93 774.162 113.034 778.892 113.034C781.59 113.034 784.008 112.701 786.145 112.036C788.283 111.335 790.14 110.336 791.716 109.04C793.293 107.743 794.572 106.184 795.553 104.362C796.569 102.505 797.252 100.42 797.603 98.108L827.245 98.3182C826.894 102.873 825.615 107.516 823.408 112.246C821.201 116.941 818.065 121.286 814 125.28C809.971 129.239 804.978 132.428 799.022 134.845C793.065 137.263 786.145 138.472 778.262 138.472C768.381 138.472 759.516 136.352 751.668 132.112C743.855 127.873 737.67 121.636 733.115 113.402C728.596 105.168 726.336 95.0947 726.336 83.1818C726.336 71.1989 728.648 61.108 733.273 52.9091C737.898 44.6752 744.135 38.456 751.983 34.2514C759.832 30.0118 768.591 27.892 778.262 27.892C785.059 27.892 791.313 28.8205 797.025 30.6775C802.736 32.5346 807.746 35.25 812.056 38.8239C816.365 42.3627 819.834 46.7249 822.462 51.9105C825.09 57.0961 826.684 63.035 827.245 69.7273ZM941.815 83.1818C941.815 95.1648 939.485 105.273 934.825 113.507C930.165 121.706 923.875 127.925 915.957 132.165C908.038 136.369 899.209 138.472 889.468 138.472C879.658 138.472 870.793 136.352 862.875 132.112C854.991 127.838 848.719 121.601 844.059 113.402C839.434 105.168 837.122 95.0947 837.122 83.1818C837.122 71.1989 839.434 61.108 844.059 52.9091C848.719 44.6752 854.991 38.456 862.875 34.2514C870.793 30.0118 879.658 27.892 889.468 27.892C899.209 27.892 908.038 30.0118 915.957 34.2514C923.875 38.456 930.165 44.6752 934.825 52.9091C939.485 61.108 941.815 71.1989 941.815 83.1818ZM911.752 83.1818C911.752 76.7348 910.894 71.304 909.177 66.8892C907.495 62.4394 904.99 59.0758 901.661 56.7983C898.368 54.4858 894.303 53.3295 889.468 53.3295C884.633 53.3295 880.551 54.4858 877.223 56.7983C873.929 59.0758 871.424 62.4394 869.707 66.8892C868.025 71.304 867.184 76.7348 867.184 83.1818C867.184 89.6288 868.025 95.0772 869.707 99.527C871.424 103.942 873.929 107.305 877.223 109.618C880.551 111.895 884.633 113.034 889.468 113.034C894.303 113.034 898.368 111.895 901.661 109.618C904.99 107.305 907.495 103.942 909.177 99.527C910.894 95.0772 911.752 89.6288 911.752 83.1818ZM269.693 247.736C266.963 247.736 264.694 247.291 262.885 246.402C261.075 245.482 259.649 244.163 258.607 242.446C257.564 240.729 256.813 238.659 256.353 236.236C255.923 233.813 255.709 231.084 255.709 228.048L265.461 227.128C265.461 228.6 265.507 230.026 265.599 231.406C265.721 232.755 265.921 233.982 266.197 235.086C266.503 236.159 266.933 237.018 267.485 237.662C268.067 238.306 268.803 238.628 269.693 238.628C271.165 238.628 272.207 237.953 272.821 236.604C273.434 235.224 273.741 233.568 273.741 231.636C273.741 229.704 273.235 227.695 272.223 225.61C271.211 223.525 269.999 221.547 268.589 219.676C266.197 216.487 264.096 213.527 262.287 210.798C260.508 208.069 259.113 205.385 258.101 202.748C257.119 200.111 256.629 197.351 256.629 194.468C256.629 192.199 256.92 190.113 257.503 188.212C258.085 186.28 258.929 184.609 260.033 183.198C261.167 181.757 262.532 180.637 264.127 179.84C265.721 179.043 267.546 178.644 269.601 178.644C272.146 178.644 274.293 179.073 276.041 179.932C277.819 180.791 279.245 182.017 280.319 183.612C281.423 185.207 282.22 187.108 282.711 189.316C283.232 191.493 283.493 193.916 283.493 196.584L273.741 197.504C273.741 196.369 273.679 195.235 273.557 194.1C273.465 192.935 273.281 191.877 273.005 190.926C272.729 189.975 272.33 189.209 271.809 188.626C271.287 188.043 270.613 187.752 269.785 187.752C268.497 187.752 267.607 188.304 267.117 189.408C266.626 190.481 266.381 192.015 266.381 194.008C266.381 196.584 267.071 199.068 268.451 201.46C269.831 203.852 271.686 206.643 274.017 209.832C276.807 213.604 279.077 217.069 280.825 220.228C282.603 223.387 283.493 226.883 283.493 230.716C283.493 233.139 283.232 235.393 282.711 237.478C282.189 239.533 281.361 241.327 280.227 242.86C279.123 244.393 277.697 245.589 275.949 246.448C274.231 247.307 272.146 247.736 269.693 247.736ZM286.979 247V179.38H309.703V189.592H296.915V207.808H306.115V217.744H296.915V236.788H309.703V247H286.979ZM313.346 247L323.558 179.38H335.702L345.914 247H336.254L334.414 233.2H324.846L323.006 247H313.346ZM326.226 222.712H333.034L330.182 199.988L329.906 196.4H329.354L329.078 199.988L326.226 222.712ZM349.334 247V179.38H361.938L367.366 214.432L367.826 218.02H368.01L368.47 214.432L373.898 179.38H386.502V247H377.302V201.644H376.75L376.382 204.496L370.494 247H365.342L359.454 204.496L359.086 201.644H358.534V247H349.334ZM392.056 247V179.38H401.992V237.8H415.148V247H392.056ZM417.349 247V179.38H440.073V189.592H427.285V207.808H436.485V217.744H427.285V236.788H440.073V247H417.349ZM457.567 247.736C454.837 247.736 452.568 247.291 450.759 246.402C448.949 245.482 447.523 244.163 446.481 242.446C445.438 240.729 444.687 238.659 444.227 236.236C443.797 233.813 443.583 231.084 443.583 228.048L453.335 227.128C453.335 228.6 453.381 230.026 453.473 231.406C453.595 232.755 453.795 233.982 454.071 235.086C454.377 236.159 454.807 237.018 455.359 237.662C455.941 238.306 456.677 238.628 457.567 238.628C459.039 238.628 460.081 237.953 460.695 236.604C461.308 235.224 461.615 233.568 461.615 231.636C461.615 229.704 461.109 227.695 460.097 225.61C459.085 223.525 457.873 221.547 456.463 219.676C454.071 216.487 451.97 213.527 450.161 210.798C448.382 208.069 446.987 205.385 445.975 202.748C444.993 200.111 444.503 197.351 444.503 194.468C444.503 192.199 444.794 190.113 445.377 188.212C445.959 186.28 446.803 184.609 447.907 183.198C449.041 181.757 450.406 180.637 452.001 179.84C453.595 179.043 455.42 178.644 457.475 178.644C460.02 178.644 462.167 179.073 463.915 179.932C465.693 180.791 467.119 182.017 468.193 183.612C469.297 185.207 470.094 187.108 470.585 189.316C471.106 191.493 471.367 193.916 471.367 196.584L461.615 197.504C461.615 196.369 461.553 195.235 461.431 194.1C461.339 192.935 461.155 191.877 460.879 190.926C460.603 189.975 460.204 189.209 459.683 188.626C459.161 188.043 458.487 187.752 457.659 187.752C456.371 187.752 455.481 188.304 454.991 189.408C454.5 190.481 454.255 192.015 454.255 194.008C454.255 196.584 454.945 199.068 456.325 201.46C457.705 203.852 459.56 206.643 461.891 209.832C464.681 213.604 466.951 217.069 468.699 220.228C470.477 223.387 471.367 226.883 471.367 230.716C471.367 233.139 471.106 235.393 470.585 237.478C470.063 239.533 469.235 241.327 468.101 242.86C466.997 244.393 465.571 245.589 463.823 246.448C462.105 247.307 460.02 247.736 457.567 247.736ZM486.813 247.736C484.083 247.736 481.814 247.291 480.005 246.402C478.195 245.482 476.769 244.163 475.727 242.446C474.684 240.729 473.933 238.659 473.473 236.236C473.043 233.813 472.829 231.084 472.829 228.048L482.581 227.128C482.581 228.6 482.627 230.026 482.719 231.406C482.841 232.755 483.041 233.982 483.317 235.086C483.623 236.159 484.053 237.018 484.605 237.662C485.187 238.306 485.923 238.628 486.813 238.628C488.285 238.628 489.327 237.953 489.941 236.604C490.554 235.224 490.861 233.568 490.861 231.636C490.861 229.704 490.355 227.695 489.343 225.61C488.331 223.525 487.119 221.547 485.709 219.676C483.317 216.487 481.216 213.527 479.407 210.798C477.628 208.069 476.233 205.385 475.221 202.748C474.239 200.111 473.749 197.351 473.749 194.468C473.749 192.199 474.04 190.113 474.623 188.212C475.205 186.28 476.049 184.609 477.153 183.198C478.287 181.757 479.652 180.637 481.247 179.84C482.841 179.043 484.666 178.644 486.721 178.644C489.266 178.644 491.413 179.073 493.161 179.932C494.939 180.791 496.365 182.017 497.439 183.612C498.543 185.207 499.34 187.108 499.831 189.316C500.352 191.493 500.613 193.916 500.613 196.584L490.861 197.504C490.861 196.369 490.799 195.235 490.677 194.1C490.585 192.935 490.401 191.877 490.125 190.926C489.849 189.975 489.45 189.209 488.929 188.626C488.407 188.043 487.733 187.752 486.905 187.752C485.617 187.752 484.727 188.304 484.237 189.408C483.746 190.481 483.501 192.015 483.501 194.008C483.501 196.584 484.191 199.068 485.571 201.46C486.951 203.852 488.806 206.643 491.137 209.832C493.927 213.604 496.197 217.069 497.945 220.228C499.723 223.387 500.613 226.883 500.613 230.716C500.613 233.139 500.352 235.393 499.831 237.478C499.309 239.533 498.481 241.327 497.347 242.86C496.243 244.393 494.817 245.589 493.069 246.448C491.351 247.307 489.266 247.736 486.813 247.736ZM527.678 247.736C524.949 247.736 522.725 247.092 521.008 245.804C519.291 244.516 518.018 242.768 517.19 240.56C516.393 238.352 515.994 235.868 515.994 233.108V193.272C515.994 190.543 516.531 188.074 517.604 185.866C518.677 183.658 520.211 181.91 522.204 180.622C524.197 179.303 526.543 178.644 529.242 178.644C531.297 178.644 533.137 179.027 534.762 179.794C536.418 180.53 537.813 181.573 538.948 182.922C540.113 184.271 540.987 185.835 541.57 187.614C542.183 189.362 542.49 191.248 542.49 193.272V203.668H532.554V193.272C532.554 191.923 532.309 190.757 531.818 189.776C531.327 188.795 530.469 188.304 529.242 188.304C528.046 188.304 527.187 188.825 526.666 189.868C526.175 190.88 525.93 192.015 525.93 193.272V233.936C525.93 235.255 526.191 236.42 526.712 237.432C527.233 238.413 528.077 238.904 529.242 238.904C530.469 238.904 531.327 238.413 531.818 237.432C532.309 236.42 532.554 235.255 532.554 233.936V222.62H528.598V213.328H542.49V247H536.602L535.406 243.32C534.547 244.7 533.443 245.789 532.094 246.586C530.775 247.353 529.303 247.736 527.678 247.736ZM561.284 247.736C558.493 247.736 556.101 247.092 554.108 245.804C552.145 244.516 550.643 242.768 549.6 240.56C548.557 238.352 548.036 235.868 548.036 233.108V179.38H557.972V233.108C557.972 234.427 558.233 235.592 558.754 236.604C559.275 237.585 560.119 238.076 561.284 238.076C562.511 238.076 563.369 237.585 563.86 236.604C564.351 235.592 564.596 234.427 564.596 233.108V179.38H574.532V233.108C574.532 235.868 573.995 238.352 572.922 240.56C571.879 242.768 570.361 244.516 568.368 245.804C566.405 247.092 564.044 247.736 561.284 247.736ZM586.691 247V189.592H577.307V179.38H606.011V189.592H596.627V247H586.691ZM616.117 247V189.592H606.733V179.38H635.437V189.592H626.053V247H616.117ZM638.199 247V179.38H660.923V189.592H648.135V207.808H657.335V217.744H648.135V236.788H660.923V247H638.199ZM666.457 247V179.38H676.393C682.342 179.38 686.728 181.036 689.549 184.348C692.37 187.629 693.781 192.475 693.781 198.884C693.781 202.687 693.106 205.983 691.757 208.774C690.438 211.534 688.828 213.558 686.927 214.846L693.689 247H683.753L678.141 218.48H676.393V247H666.457ZM676.393 209.28C678.233 209.28 679.69 208.881 680.763 208.084C681.836 207.256 682.603 206.091 683.063 204.588C683.523 203.085 683.753 201.307 683.753 199.252C683.753 196.032 683.216 193.563 682.143 191.846C681.1 190.098 679.184 189.224 676.393 189.224V209.28ZM721.815 247.736C719.086 247.736 716.817 247.291 715.007 246.402C713.198 245.482 711.772 244.163 710.729 242.446C709.687 240.729 708.935 238.659 708.475 236.236C708.046 233.813 707.831 231.084 707.831 228.048L717.583 227.128C717.583 228.6 717.629 230.026 717.721 231.406C717.844 232.755 718.043 233.982 718.319 235.086C718.626 236.159 719.055 237.018 719.607 237.662C720.19 238.306 720.926 238.628 721.815 238.628C723.287 238.628 724.33 237.953 724.943 236.604C725.557 235.224 725.863 233.568 725.863 231.636C725.863 229.704 725.357 227.695 724.345 225.61C723.333 223.525 722.122 221.547 720.711 219.676C718.319 216.487 716.219 213.527 714.409 210.798C712.631 208.069 711.235 205.385 710.223 202.748C709.242 200.111 708.751 197.351 708.751 194.468C708.751 192.199 709.043 190.113 709.625 188.212C710.208 186.28 711.051 184.609 712.155 183.198C713.29 181.757 714.655 180.637 716.249 179.84C717.844 179.043 719.669 178.644 721.723 178.644C724.269 178.644 726.415 179.073 728.163 179.932C729.942 180.791 731.368 182.017 732.441 183.612C733.545 185.207 734.343 187.108 734.833 189.316C735.355 191.493 735.615 193.916 735.615 196.584L725.863 197.504C725.863 196.369 725.802 195.235 725.679 194.1C725.587 192.935 725.403 191.877 725.127 190.926C724.851 189.975 724.453 189.209 723.931 188.626C723.41 188.043 722.735 187.752 721.907 187.752C720.619 187.752 719.73 188.304 719.239 189.408C718.749 190.481 718.503 192.015 718.503 194.008C718.503 196.584 719.193 199.068 720.573 201.46C721.953 203.852 723.809 206.643 726.139 209.832C728.93 213.604 731.199 217.069 732.947 220.228C734.726 223.387 735.615 226.883 735.615 230.716C735.615 233.139 735.355 235.393 734.833 237.478C734.312 239.533 733.484 241.327 732.349 242.86C731.245 244.393 729.819 245.589 728.071 246.448C726.354 247.307 724.269 247.736 721.815 247.736ZM746.921 247V218.204L736.801 179.38H746.553L751.429 201L751.751 203.944H752.027L752.349 201L757.225 179.38H766.977L756.857 218.204V247H746.921ZM782.194 247.736C779.465 247.736 777.195 247.291 775.386 246.402C773.576 245.482 772.15 244.163 771.108 242.446C770.065 240.729 769.314 238.659 768.854 236.236C768.424 233.813 768.21 231.084 768.21 228.048L777.962 227.128C777.962 228.6 778.008 230.026 778.1 231.406C778.223 232.755 778.422 233.982 778.698 235.086C779.005 236.159 779.434 237.018 779.986 237.662C780.569 238.306 781.305 238.628 782.194 238.628C783.666 238.628 784.709 237.953 785.322 236.604C785.935 235.224 786.242 233.568 786.242 231.636C786.242 229.704 785.736 227.695 784.724 225.61C783.712 223.525 782.501 221.547 781.09 219.676C778.698 216.487 776.597 213.527 774.788 210.798C773.009 208.069 771.614 205.385 770.602 202.748C769.62 200.111 769.13 197.351 769.13 194.468C769.13 192.199 769.421 190.113 770.004 188.212C770.586 186.28 771.43 184.609 772.534 183.198C773.669 181.757 775.033 180.637 776.628 179.84C778.223 179.043 780.047 178.644 782.102 178.644C784.647 178.644 786.794 179.073 788.542 179.932C790.321 180.791 791.747 182.017 792.82 183.612C793.924 185.207 794.721 187.108 795.212 189.316C795.733 191.493 795.994 193.916 795.994 196.584L786.242 197.504C786.242 196.369 786.181 195.235 786.058 194.1C785.966 192.935 785.782 191.877 785.506 190.926C785.23 189.975 784.831 189.209 784.31 188.626C783.789 188.043 783.114 187.752 782.286 187.752C780.998 187.752 780.109 188.304 779.618 189.408C779.127 190.481 778.882 192.015 778.882 194.008C778.882 196.584 779.572 199.068 780.952 201.46C782.332 203.852 784.187 206.643 786.518 209.832C789.309 213.604 791.578 217.069 793.326 220.228C795.105 223.387 795.994 226.883 795.994 230.716C795.994 233.139 795.733 235.393 795.212 237.478C794.691 239.533 793.862 241.327 792.728 242.86C791.624 244.393 790.198 245.589 788.45 246.448C786.733 247.307 784.647 247.736 782.194 247.736ZM806.104 247V189.592H796.72V179.38H825.424V189.592H816.04V247H806.104ZM828.187 247V179.38H850.911V189.592H838.123V207.808H847.323V217.744H838.123V236.788H850.911V247H828.187ZM856.444 247V179.38H869.048L874.476 214.432L874.936 218.02H875.12L875.58 214.432L881.008 179.38H893.612V247H884.412V201.644H883.86L883.492 204.496L877.604 247H872.452L866.564 204.496L866.196 201.644H865.644V247H856.444ZM911.127 247.736C908.397 247.736 906.128 247.291 904.319 246.402C902.509 245.482 901.083 244.163 900.041 242.446C898.998 240.729 898.247 238.659 897.787 236.236C897.357 233.813 897.143 231.084 897.143 228.048L906.895 227.128C906.895 228.6 906.941 230.026 907.033 231.406C907.155 232.755 907.355 233.982 907.631 235.086C907.937 236.159 908.367 237.018 908.919 237.662C909.501 238.306 910.237 238.628 911.127 238.628C912.599 238.628 913.641 237.953 914.255 236.604C914.868 235.224 915.175 233.568 915.175 231.636C915.175 229.704 914.669 227.695 913.657 225.61C912.645 223.525 911.433 221.547 910.023 219.676C907.631 216.487 905.53 213.527 903.721 210.798C901.942 208.069 900.547 205.385 899.535 202.748C898.553 200.111 898.063 197.351 898.063 194.468C898.063 192.199 898.354 190.113 898.937 188.212C899.519 186.28 900.363 184.609 901.467 183.198C902.601 181.757 903.966 180.637 905.561 179.84C907.155 179.043 908.98 178.644 911.035 178.644C913.58 178.644 915.727 179.073 917.475 179.932C919.253 180.791 920.679 182.017 921.753 183.612C922.857 185.207 923.654 187.108 924.145 189.316C924.666 191.493 924.927 193.916 924.927 196.584L915.175 197.504C915.175 196.369 915.113 195.235 914.991 194.1C914.899 192.935 914.715 191.877 914.439 190.926C914.163 189.975 913.764 189.209 913.243 188.626C912.721 188.043 912.047 187.752 911.219 187.752C909.931 187.752 909.041 188.304 908.551 189.408C908.06 190.481 907.815 192.015 907.815 194.008C907.815 196.584 908.505 199.068 909.885 201.46C911.265 203.852 913.12 206.643 915.451 209.832C918.241 213.604 920.511 217.069 922.259 220.228C924.037 223.387 924.927 226.883 924.927 230.716C924.927 233.139 924.666 235.393 924.145 237.478C923.623 239.533 922.795 241.327 921.661 242.86C920.557 244.393 919.131 245.589 917.383 246.448C915.665 247.307 913.58 247.736 911.127 247.736Z" fill="white"/>
</svg>
