<svg width="952" height="250" viewBox="0 0 952 250" fill="none" xmlns="http://www.w3.org/2000/svg">
<path d="M0.34375 24.7765V170.786C0.34375 187.898 9.80269 203.54 24.777 211.193L85.7793 242.367C86.7565 242.867 87.8243 243.105 88.8878 243.081V167.714C70.2458 167.714 55.1335 151.827 55.1335 132.229C55.1335 112.63 88.8878 79 88.8878 79L88.744 18H6.97377C3.31212 18 0.34375 21.0339 0.34375 24.7765Z" fill="#0066CC"/>
<path d="M177.144 24.7765C177.144 21.0339 174.176 18 170.514 18H88.744L88.8878 79C88.8878 79 122.642 112.63 122.642 132.229C122.642 151.827 107.53 167.714 88.8878 167.714V243.081C89.8555 243.06 90.8196 242.822 91.7087 242.367L152.712 211.193C167.685 203.54 177.144 187.898 177.144 170.786V24.7765Z" fill="#23D237"/>
<path d="M284.211 23.3636H313.012V97.1534C312.977 104.161 311.207 110.328 307.704 115.653C304.235 120.944 299.435 125.079 293.303 128.057C287.206 131 280.181 132.472 272.228 132.472C265.325 132.472 259.018 131.28 253.307 128.898C247.596 126.48 243.041 122.696 239.642 117.545C236.244 112.36 234.562 105.633 234.597 97.3636H263.819C263.924 100.062 264.379 102.339 265.185 104.196C266.026 106.053 267.182 107.455 268.654 108.401C270.16 109.312 271.982 109.767 274.12 109.767C276.292 109.767 278.114 109.294 279.586 108.348C281.092 107.402 282.231 106 283.002 104.143C283.773 102.251 284.176 99.9214 284.211 97.1534V23.3636ZM428.173 77.1818C428.173 89.1648 425.843 99.2732 421.183 107.507C416.523 115.706 410.234 121.925 402.315 126.165C394.397 130.369 385.567 132.472 375.827 132.472C366.016 132.472 357.151 130.352 349.233 126.112C341.349 121.838 335.078 115.601 330.418 107.402C325.793 99.1681 323.48 89.0947 323.48 77.1818C323.48 65.1989 325.793 55.108 330.418 46.9091C335.078 38.6752 341.349 32.456 349.233 28.2514C357.151 24.0118 366.016 21.892 375.827 21.892C385.567 21.892 394.397 24.0118 402.315 28.2514C410.234 32.456 416.523 38.6752 421.183 46.9091C425.843 55.108 428.173 65.1989 428.173 77.1818ZM398.111 77.1818C398.111 70.7348 397.252 65.304 395.535 60.8892C393.854 56.4394 391.348 53.0758 388.02 50.7983C384.726 48.4858 380.662 47.3295 375.827 47.3295C370.991 47.3295 366.909 48.4858 363.581 50.7983C360.287 53.0758 357.782 56.4394 356.065 60.8892C354.383 65.304 353.543 70.7348 353.543 77.1818C353.543 83.6288 354.383 89.0772 356.065 93.527C357.782 97.9418 360.287 101.305 363.581 103.618C366.909 105.895 370.991 107.034 375.827 107.034C380.662 107.034 384.726 105.895 388.02 103.618C391.348 101.305 393.854 97.9418 395.535 93.527C397.252 89.0772 398.111 83.6288 398.111 77.1818ZM531.864 23.3636V131H507.478L468.586 74.4489H467.955V131H438.733V23.3636H463.54L501.802 79.7045H502.643V23.3636H531.864ZM542.727 131V23.3636H620.3V46.9091H571.948V65.4091H616.306V88.9545H571.948V107.455H620.09V131H542.727ZM689.856 57C689.575 53.4962 688.261 50.7633 685.914 48.8011C683.601 46.839 680.08 45.8579 675.35 45.8579C672.337 45.8579 669.867 46.2258 667.94 46.9616C666.047 47.6624 664.646 48.6259 663.735 49.8523C662.824 51.0786 662.351 52.4801 662.316 54.0568C662.246 55.3532 662.474 56.527 662.999 57.5781C663.56 58.5942 664.436 59.5227 665.627 60.3636C666.818 61.1695 668.342 61.9053 670.199 62.571C672.056 63.2367 674.264 63.8324 676.822 64.358L685.651 66.25C691.608 67.5114 696.706 69.1757 700.945 71.2429C705.185 73.3101 708.654 75.7453 711.351 78.5483C714.049 81.3163 716.029 84.4347 717.29 87.9034C718.587 91.3722 719.252 95.1562 719.288 99.2557C719.252 106.333 717.483 112.325 713.979 117.23C710.475 122.135 705.465 125.867 698.948 128.425C692.466 130.982 684.67 132.261 675.56 132.261C666.205 132.261 658.041 130.877 651.069 128.109C644.131 125.341 638.735 121.084 634.881 115.338C631.062 109.557 629.135 102.164 629.1 93.1591H656.85C657.025 96.4527 657.849 99.2206 659.32 101.463C660.792 103.705 662.859 105.405 665.522 106.561C668.22 107.717 671.426 108.295 675.14 108.295C678.258 108.295 680.868 107.91 682.971 107.139C685.073 106.368 686.667 105.3 687.753 103.933C688.84 102.567 689.4 101.008 689.435 99.2557C689.4 97.6089 688.857 96.1723 687.806 94.946C686.79 93.6847 685.108 92.5634 682.761 91.5824C680.413 90.5663 677.242 89.6203 673.248 88.7443L662.526 86.4318C652.996 84.3646 645.48 80.9133 639.979 76.0781C634.513 71.2079 631.798 64.5682 631.833 56.1591C631.798 49.3267 633.62 43.3527 637.299 38.2372C641.013 33.0866 646.146 29.0748 652.698 26.2017C659.285 23.3286 666.836 21.892 675.35 21.892C684.039 21.892 691.555 23.3461 697.897 26.2543C704.239 29.1624 709.127 33.2618 712.56 38.5526C716.029 43.8082 717.781 49.9574 717.816 57H689.856ZM827.932 63.7273H798.29C798.08 61.2746 797.519 59.0497 796.608 57.0526C795.732 55.0554 794.506 53.3385 792.929 51.902C791.387 50.4304 789.513 49.3092 787.306 48.5383C785.098 47.7325 782.593 47.3295 779.79 47.3295C774.885 47.3295 770.733 48.5208 767.334 50.9034C763.97 53.286 761.413 56.7022 759.661 61.152C757.944 65.6018 757.085 70.9451 757.085 77.1818C757.085 83.7689 757.961 89.2874 759.713 93.7372C761.5 98.152 764.075 101.481 767.439 103.723C770.803 105.93 774.85 107.034 779.58 107.034C782.278 107.034 784.695 106.701 786.833 106.036C788.97 105.335 790.827 104.336 792.404 103.04C793.98 101.743 795.259 100.184 796.24 98.3622C797.256 96.5052 797.94 94.4205 798.29 92.108L827.932 92.3182C827.582 96.8731 826.303 101.516 824.095 106.246C821.888 110.941 818.752 115.286 814.688 119.28C810.658 123.239 805.665 126.428 799.709 128.845C793.752 131.263 786.833 132.472 778.949 132.472C769.068 132.472 760.204 130.352 752.355 126.112C744.542 121.873 738.358 115.636 733.803 107.402C729.283 99.1681 727.023 89.0947 727.023 77.1818C727.023 65.1989 729.335 55.108 733.96 46.9091C738.585 38.6752 744.822 32.456 752.671 28.2514C760.519 24.0118 769.279 21.892 778.949 21.892C785.746 21.892 792.001 22.8205 797.712 24.6775C803.423 26.5346 808.433 29.25 812.743 32.8239C817.053 36.3627 820.521 40.7249 823.149 45.9105C825.777 51.0961 827.371 57.035 827.932 63.7273ZM942.502 77.1818C942.502 89.1648 940.172 99.2732 935.512 107.507C930.852 115.706 924.563 121.925 916.644 126.165C908.726 130.369 899.896 132.472 890.156 132.472C880.345 132.472 871.48 130.352 863.562 126.112C855.678 121.838 849.406 115.601 844.746 107.402C840.121 99.1681 837.809 89.0947 837.809 77.1818C837.809 65.1989 840.121 55.108 844.746 46.9091C849.406 38.6752 855.678 32.456 863.562 28.2514C871.48 24.0118 880.345 21.892 890.156 21.892C899.896 21.892 908.726 24.0118 916.644 28.2514C924.563 32.456 930.852 38.6752 935.512 46.9091C940.172 55.108 942.502 65.1989 942.502 77.1818ZM912.44 77.1818C912.44 70.7348 911.581 65.304 909.864 60.8892C908.182 56.4394 905.677 53.0758 902.349 50.7983C899.055 48.4858 894.991 47.3295 890.156 47.3295C885.32 47.3295 881.238 48.4858 877.91 50.7983C874.616 53.0758 872.111 56.4394 870.394 60.8892C868.712 65.304 867.871 70.7348 867.871 77.1818C867.871 83.6288 868.712 89.0772 870.394 93.527C872.111 97.9418 874.616 101.305 877.91 103.618C881.238 105.895 885.32 107.034 890.156 107.034C894.991 107.034 899.055 105.895 902.349 103.618C905.677 101.305 908.182 97.9418 909.864 93.527C911.581 89.0772 912.44 83.6288 912.44 77.1818Z" fill="black"/>
<path d="M270.38 241.736C267.651 241.736 265.381 241.291 263.572 240.402C261.763 239.482 260.337 238.163 259.294 236.446C258.251 234.729 257.5 232.659 257.04 230.236C256.611 227.813 256.396 225.084 256.396 222.048L266.148 221.128C266.148 222.6 266.194 224.026 266.286 225.406C266.409 226.755 266.608 227.982 266.884 229.086C267.191 230.159 267.62 231.018 268.172 231.662C268.755 232.306 269.491 232.628 270.38 232.628C271.852 232.628 272.895 231.953 273.508 230.604C274.121 229.224 274.428 227.568 274.428 225.636C274.428 223.704 273.922 221.695 272.91 219.61C271.898 217.525 270.687 215.547 269.276 213.676C266.884 210.487 264.783 207.527 262.974 204.798C261.195 202.069 259.8 199.385 258.788 196.748C257.807 194.111 257.316 191.351 257.316 188.468C257.316 186.199 257.607 184.113 258.19 182.212C258.773 180.28 259.616 178.609 260.72 177.198C261.855 175.757 263.219 174.637 264.814 173.84C266.409 173.043 268.233 172.644 270.288 172.644C272.833 172.644 274.98 173.073 276.728 173.932C278.507 174.791 279.933 176.017 281.006 177.612C282.11 179.207 282.907 181.108 283.398 183.316C283.919 185.493 284.18 187.916 284.18 190.584L274.428 191.504C274.428 190.369 274.367 189.235 274.244 188.1C274.152 186.935 273.968 185.877 273.692 184.926C273.416 183.975 273.017 183.209 272.496 182.626C271.975 182.043 271.3 181.752 270.472 181.752C269.184 181.752 268.295 182.304 267.804 183.408C267.313 184.481 267.068 186.015 267.068 188.008C267.068 190.584 267.758 193.068 269.138 195.46C270.518 197.852 272.373 200.643 274.704 203.832C277.495 207.604 279.764 211.069 281.512 214.228C283.291 217.387 284.18 220.883 284.18 224.716C284.18 227.139 283.919 229.393 283.398 231.478C282.877 233.533 282.049 235.327 280.914 236.86C279.81 238.393 278.384 239.589 276.636 240.448C274.919 241.307 272.833 241.736 270.38 241.736ZM287.666 241V173.38H310.39V183.592H297.602V201.808H306.802V211.744H297.602V230.788H310.39V241H287.666ZM314.033 241L324.245 173.38H336.389L346.601 241H336.941L335.101 227.2H325.533L323.693 241H314.033ZM326.913 216.712H333.721L330.869 193.988L330.593 190.4H330.041L329.765 193.988L326.913 216.712ZM350.021 241V173.38H362.625L368.053 208.432L368.513 212.02H368.697L369.157 208.432L374.585 173.38H387.189V241H377.989V195.644H377.437L377.069 198.496L371.181 241H366.029L360.141 198.496L359.773 195.644H359.221V241H350.021ZM392.744 241V173.38H402.68V231.8H415.836V241H392.744ZM418.036 241V173.38H440.76V183.592H427.972V201.808H437.172V211.744H427.972V230.788H440.76V241H418.036ZM458.254 241.736C455.525 241.736 453.255 241.291 451.446 240.402C449.637 239.482 448.211 238.163 447.168 236.446C446.125 234.729 445.374 232.659 444.914 230.236C444.485 227.813 444.27 225.084 444.27 222.048L454.022 221.128C454.022 222.6 454.068 224.026 454.16 225.406C454.283 226.755 454.482 227.982 454.758 229.086C455.065 230.159 455.494 231.018 456.046 231.662C456.629 232.306 457.365 232.628 458.254 232.628C459.726 232.628 460.769 231.953 461.382 230.604C461.995 229.224 462.302 227.568 462.302 225.636C462.302 223.704 461.796 221.695 460.784 219.61C459.772 217.525 458.561 215.547 457.15 213.676C454.758 210.487 452.657 207.527 450.848 204.798C449.069 202.069 447.674 199.385 446.662 196.748C445.681 194.111 445.19 191.351 445.19 188.468C445.19 186.199 445.481 184.113 446.064 182.212C446.647 180.28 447.49 178.609 448.594 177.198C449.729 175.757 451.093 174.637 452.688 173.84C454.283 173.043 456.107 172.644 458.162 172.644C460.707 172.644 462.854 173.073 464.602 173.932C466.381 174.791 467.807 176.017 468.88 177.612C469.984 179.207 470.781 181.108 471.272 183.316C471.793 185.493 472.054 187.916 472.054 190.584L462.302 191.504C462.302 190.369 462.241 189.235 462.118 188.1C462.026 186.935 461.842 185.877 461.566 184.926C461.29 183.975 460.891 183.209 460.37 182.626C459.849 182.043 459.174 181.752 458.346 181.752C457.058 181.752 456.169 182.304 455.678 183.408C455.187 184.481 454.942 186.015 454.942 188.008C454.942 190.584 455.632 193.068 457.012 195.46C458.392 197.852 460.247 200.643 462.578 203.832C465.369 207.604 467.638 211.069 469.386 214.228C471.165 217.387 472.054 220.883 472.054 224.716C472.054 227.139 471.793 229.393 471.272 231.478C470.751 233.533 469.923 235.327 468.788 236.86C467.684 238.393 466.258 239.589 464.51 240.448C462.793 241.307 460.707 241.736 458.254 241.736ZM487.5 241.736C484.771 241.736 482.501 241.291 480.692 240.402C478.883 239.482 477.457 238.163 476.414 236.446C475.371 234.729 474.62 232.659 474.16 230.236C473.731 227.813 473.516 225.084 473.516 222.048L483.268 221.128C483.268 222.6 483.314 224.026 483.406 225.406C483.529 226.755 483.728 227.982 484.004 229.086C484.311 230.159 484.74 231.018 485.292 231.662C485.875 232.306 486.611 232.628 487.5 232.628C488.972 232.628 490.015 231.953 490.628 230.604C491.241 229.224 491.548 227.568 491.548 225.636C491.548 223.704 491.042 221.695 490.03 219.61C489.018 217.525 487.807 215.547 486.396 213.676C484.004 210.487 481.903 207.527 480.094 204.798C478.315 202.069 476.92 199.385 475.908 196.748C474.927 194.111 474.436 191.351 474.436 188.468C474.436 186.199 474.727 184.113 475.31 182.212C475.893 180.28 476.736 178.609 477.84 177.198C478.975 175.757 480.339 174.637 481.934 173.84C483.529 173.043 485.353 172.644 487.408 172.644C489.953 172.644 492.1 173.073 493.848 173.932C495.627 174.791 497.053 176.017 498.126 177.612C499.23 179.207 500.027 181.108 500.518 183.316C501.039 185.493 501.3 187.916 501.3 190.584L491.548 191.504C491.548 190.369 491.487 189.235 491.364 188.1C491.272 186.935 491.088 185.877 490.812 184.926C490.536 183.975 490.137 183.209 489.616 182.626C489.095 182.043 488.42 181.752 487.592 181.752C486.304 181.752 485.415 182.304 484.924 183.408C484.433 184.481 484.188 186.015 484.188 188.008C484.188 190.584 484.878 193.068 486.258 195.46C487.638 197.852 489.493 200.643 491.824 203.832C494.615 207.604 496.884 211.069 498.632 214.228C500.411 217.387 501.3 220.883 501.3 224.716C501.3 227.139 501.039 229.393 500.518 231.478C499.997 233.533 499.169 235.327 498.034 236.86C496.93 238.393 495.504 239.589 493.756 240.448C492.039 241.307 489.953 241.736 487.5 241.736ZM528.365 241.736C525.636 241.736 523.413 241.092 521.695 239.804C519.978 238.516 518.705 236.768 517.877 234.56C517.08 232.352 516.681 229.868 516.681 227.108V187.272C516.681 184.543 517.218 182.074 518.291 179.866C519.365 177.658 520.898 175.91 522.891 174.622C524.885 173.303 527.231 172.644 529.929 172.644C531.984 172.644 533.824 173.027 535.449 173.794C537.105 174.53 538.501 175.573 539.635 176.922C540.801 178.271 541.675 179.835 542.257 181.614C542.871 183.362 543.177 185.248 543.177 187.272V197.668H533.241V187.272C533.241 185.923 532.996 184.757 532.505 183.776C532.015 182.795 531.156 182.304 529.929 182.304C528.733 182.304 527.875 182.825 527.353 183.868C526.863 184.88 526.617 186.015 526.617 187.272V227.936C526.617 229.255 526.878 230.42 527.399 231.432C527.921 232.413 528.764 232.904 529.929 232.904C531.156 232.904 532.015 232.413 532.505 231.432C532.996 230.42 533.241 229.255 533.241 227.936V216.62H529.285V207.328H543.177V241H537.289L536.093 237.32C535.235 238.7 534.131 239.789 532.781 240.586C531.463 241.353 529.991 241.736 528.365 241.736ZM561.971 241.736C559.18 241.736 556.788 241.092 554.795 239.804C552.832 238.516 551.33 236.768 550.287 234.56C549.244 232.352 548.723 229.868 548.723 227.108V173.38H558.659V227.108C558.659 228.427 558.92 229.592 559.441 230.604C559.962 231.585 560.806 232.076 561.971 232.076C563.198 232.076 564.056 231.585 564.547 230.604C565.038 229.592 565.283 228.427 565.283 227.108V173.38H575.219V227.108C575.219 229.868 574.682 232.352 573.609 234.56C572.566 236.768 571.048 238.516 569.055 239.804C567.092 241.092 564.731 241.736 561.971 241.736ZM587.378 241V183.592H577.994V173.38H606.698V183.592H597.314V241H587.378ZM616.804 241V183.592H607.42V173.38H636.124V183.592H626.74V241H616.804ZM638.887 241V173.38H661.611V183.592H648.823V201.808H658.023V211.744H648.823V230.788H661.611V241H638.887ZM667.144 241V173.38H677.08C683.03 173.38 687.415 175.036 690.236 178.348C693.058 181.629 694.468 186.475 694.468 192.884C694.468 196.687 693.794 199.983 692.444 202.774C691.126 205.534 689.516 207.558 687.614 208.846L694.376 241H684.44L678.828 212.48H677.08V241H667.144ZM677.08 203.28C678.92 203.28 680.377 202.881 681.45 202.084C682.524 201.256 683.29 200.091 683.75 198.588C684.21 197.085 684.44 195.307 684.44 193.252C684.44 190.032 683.904 187.563 682.83 185.846C681.788 184.098 679.871 183.224 677.08 183.224V203.28ZM722.502 241.736C719.773 241.736 717.504 241.291 715.694 240.402C713.885 239.482 712.459 238.163 711.416 236.446C710.374 234.729 709.622 232.659 709.162 230.236C708.733 227.813 708.518 225.084 708.518 222.048L718.27 221.128C718.27 222.6 718.316 224.026 718.408 225.406C718.531 226.755 718.73 227.982 719.006 229.086C719.313 230.159 719.742 231.018 720.294 231.662C720.877 232.306 721.613 232.628 722.502 232.628C723.974 232.628 725.017 231.953 725.63 230.604C726.244 229.224 726.55 227.568 726.55 225.636C726.55 223.704 726.044 221.695 725.032 219.61C724.02 217.525 722.809 215.547 721.398 213.676C719.006 210.487 716.906 207.527 715.096 204.798C713.318 202.069 711.922 199.385 710.91 196.748C709.929 194.111 709.438 191.351 709.438 188.468C709.438 186.199 709.73 184.113 710.312 182.212C710.895 180.28 711.738 178.609 712.842 177.198C713.977 175.757 715.342 174.637 716.936 173.84C718.531 173.043 720.356 172.644 722.41 172.644C724.956 172.644 727.102 173.073 728.85 173.932C730.629 174.791 732.055 176.017 733.128 177.612C734.232 179.207 735.03 181.108 735.52 183.316C736.042 185.493 736.302 187.916 736.302 190.584L726.55 191.504C726.55 190.369 726.489 189.235 726.366 188.1C726.274 186.935 726.09 185.877 725.814 184.926C725.538 183.975 725.14 183.209 724.618 182.626C724.097 182.043 723.422 181.752 722.594 181.752C721.306 181.752 720.417 182.304 719.926 183.408C719.436 184.481 719.19 186.015 719.19 188.008C719.19 190.584 719.88 193.068 721.26 195.46C722.64 197.852 724.496 200.643 726.826 203.832C729.617 207.604 731.886 211.069 733.634 214.228C735.413 217.387 736.302 220.883 736.302 224.716C736.302 227.139 736.042 229.393 735.52 231.478C734.999 233.533 734.171 235.327 733.036 236.86C731.932 238.393 730.506 239.589 728.758 240.448C727.041 241.307 724.956 241.736 722.502 241.736ZM747.608 241V212.204L737.488 173.38H747.24L752.116 195L752.438 197.944H752.714L753.036 195L757.912 173.38H767.664L757.544 212.204V241H747.608ZM782.881 241.736C780.152 241.736 777.882 241.291 776.073 240.402C774.264 239.482 772.838 238.163 771.795 236.446C770.752 234.729 770.001 232.659 769.541 230.236C769.112 227.813 768.897 225.084 768.897 222.048L778.649 221.128C778.649 222.6 778.695 224.026 778.787 225.406C778.91 226.755 779.109 227.982 779.385 229.086C779.692 230.159 780.121 231.018 780.673 231.662C781.256 232.306 781.992 232.628 782.881 232.628C784.353 232.628 785.396 231.953 786.009 230.604C786.622 229.224 786.929 227.568 786.929 225.636C786.929 223.704 786.423 221.695 785.411 219.61C784.399 217.525 783.188 215.547 781.777 213.676C779.385 210.487 777.284 207.527 775.475 204.798C773.696 202.069 772.301 199.385 771.289 196.748C770.308 194.111 769.817 191.351 769.817 188.468C769.817 186.199 770.108 184.113 770.691 182.212C771.274 180.28 772.117 178.609 773.221 177.198C774.356 175.757 775.72 174.637 777.315 173.84C778.91 173.043 780.734 172.644 782.789 172.644C785.334 172.644 787.481 173.073 789.229 173.932C791.008 174.791 792.434 176.017 793.507 177.612C794.611 179.207 795.408 181.108 795.899 183.316C796.42 185.493 796.681 187.916 796.681 190.584L786.929 191.504C786.929 190.369 786.868 189.235 786.745 188.1C786.653 186.935 786.469 185.877 786.193 184.926C785.917 183.975 785.518 183.209 784.997 182.626C784.476 182.043 783.801 181.752 782.973 181.752C781.685 181.752 780.796 182.304 780.305 183.408C779.814 184.481 779.569 186.015 779.569 188.008C779.569 190.584 780.259 193.068 781.639 195.46C783.019 197.852 784.874 200.643 787.205 203.832C789.996 207.604 792.265 211.069 794.013 214.228C795.792 217.387 796.681 220.883 796.681 224.716C796.681 227.139 796.42 229.393 795.899 231.478C795.378 233.533 794.55 235.327 793.415 236.86C792.311 238.393 790.885 239.589 789.137 240.448C787.42 241.307 785.334 241.736 782.881 241.736ZM806.791 241V183.592H797.407V173.38H826.111V183.592H816.727V241H806.791ZM828.874 241V173.38H851.598V183.592H838.81V201.808H848.01V211.744H838.81V230.788H851.598V241H828.874ZM857.132 241V173.38H869.736L875.164 208.432L875.624 212.02H875.808L876.268 208.432L881.696 173.38H894.3V241H885.1V195.644H884.548L884.18 198.496L878.292 241H873.14L867.252 198.496L866.884 195.644H866.332V241H857.132ZM911.814 241.736C909.085 241.736 906.815 241.291 905.006 240.402C903.197 239.482 901.771 238.163 900.728 236.446C899.685 234.729 898.934 232.659 898.474 230.236C898.045 227.813 897.83 225.084 897.83 222.048L907.582 221.128C907.582 222.6 907.628 224.026 907.72 225.406C907.843 226.755 908.042 227.982 908.318 229.086C908.625 230.159 909.054 231.018 909.606 231.662C910.189 232.306 910.925 232.628 911.814 232.628C913.286 232.628 914.329 231.953 914.942 230.604C915.555 229.224 915.862 227.568 915.862 225.636C915.862 223.704 915.356 221.695 914.344 219.61C913.332 217.525 912.121 215.547 910.71 213.676C908.318 210.487 906.217 207.527 904.408 204.798C902.629 202.069 901.234 199.385 900.222 196.748C899.241 194.111 898.75 191.351 898.75 188.468C898.75 186.199 899.041 184.113 899.624 182.212C900.207 180.28 901.05 178.609 902.154 177.198C903.289 175.757 904.653 174.637 906.248 173.84C907.843 173.043 909.667 172.644 911.722 172.644C914.267 172.644 916.414 173.073 918.162 173.932C919.941 174.791 921.367 176.017 922.44 177.612C923.544 179.207 924.341 181.108 924.832 183.316C925.353 185.493 925.614 187.916 925.614 190.584L915.862 191.504C915.862 190.369 915.801 189.235 915.678 188.1C915.586 186.935 915.402 185.877 915.126 184.926C914.85 183.975 914.451 183.209 913.93 182.626C913.409 182.043 912.734 181.752 911.906 181.752C910.618 181.752 909.729 182.304 909.238 183.408C908.747 184.481 908.502 186.015 908.502 188.008C908.502 190.584 909.192 193.068 910.572 195.46C911.952 197.852 913.807 200.643 916.138 203.832C918.929 207.604 921.198 211.069 922.946 214.228C924.725 217.387 925.614 220.883 925.614 224.716C925.614 227.139 925.353 229.393 924.832 231.478C924.311 233.533 923.483 235.327 922.348 236.86C921.244 238.393 919.818 239.589 918.07 240.448C916.353 241.307 914.267 241.736 911.814 241.736Z" fill="#23D237"/>
</svg>
