<svg width="300" height="57" viewBox="0 0 300 57" fill="none" xmlns="http://www.w3.org/2000/svg">
<path d="M46.271 0H264.857C284.266 0 300 15.7338 300 35.1425V56.6966H46.271V0Z" fill="#FDBD13"/>
<path fill-rule="evenodd" clip-rule="evenodd" d="M0.00360597 26.3464L0 0L13.5392 0.021635C25.7518 0.0412675 27.1385 0.0540918 27.6954 0.153056C29.7548 0.519662 31.5222 1.43357 32.977 2.88437C33.5788 3.48417 33.9229 3.8692 33.9229 3.94212C33.9229 3.97939 33.949 4.00944 33.9806 4.00944C34.1297 4.00944 35.3918 6.16019 35.3918 6.41421C35.3918 6.45428 35.4366 6.57328 35.4911 6.67905C36.0925 7.84178 36.2985 11.3412 35.8513 12.7908C35.7832 13.0111 35.7271 13.2431 35.7267 13.3064C35.7247 13.5396 35.2916 14.5617 34.8701 15.3274C34.3657 16.2437 33.9373 16.8106 33.1549 17.5967C31.7718 18.9858 30.5509 19.7206 28.6734 20.2936C27.6005 20.6209 27.1802 20.6341 17.8463 20.6357L9.14834 20.6369V28.0492C9.14834 33.9357 9.13111 35.4611 9.065 35.4599C9.01892 35.4587 8.50808 34.9703 7.92912 34.3745C7.35056 33.7787 5.33042 31.7289 3.44009 29.8189L0.00360597 26.3464ZM26.485 11.2506C27.1012 10.7907 27.1461 10.009 26.5852 9.50212L26.3452 9.28496H9.14834V11.4241L17.7245 11.4065C26.2683 11.3884 26.3011 11.388 26.485 11.2506Z" fill="#120F12"/>
<path fill-rule="evenodd" clip-rule="evenodd" d="M28.0957 21.5052C28.0684 21.5052 28.0464 24.8099 28.0464 28.8485V36.1919L19.0816 36.2127C9.65758 36.2348 9.54619 36.238 8.56297 36.5365C8.33259 36.6066 8.10261 36.6635 8.05212 36.6635C7.75042 36.6635 5.94103 37.5521 5.46304 37.9352C5.32721 38.0437 5.1954 38.1327 5.16975 38.1327C4.95219 38.1327 2.67122 40.4686 2.67122 40.6917C2.67122 40.7094 2.56224 40.8844 2.42962 41.0808C1.00606 43.1867 0.510044 46.9914 1.34142 49.425C1.41154 49.6305 1.46923 49.8328 1.46923 49.8737C1.46923 49.915 1.54616 50.1221 1.64031 50.3345C2.28017 51.7741 2.8399 52.599 3.99341 53.8018C5.2563 55.1188 7.18589 56.1449 9.13071 56.5335L9.94766 56.6966H37.1947V30.5882L28.0957 21.5052ZM28.0464 47.5499V45.4115L19.4822 45.4191C10.3619 45.4276 10.7302 45.4187 10.4966 45.6339C9.9132 46.1724 9.95247 46.8627 10.5951 47.3688L10.781 47.515L28.0464 47.5499Z" fill="#120F12"/>
<path d="M150.043 11.1097C150.923 10.4421 152.12 9.51658 152.703 9.05339C153.286 8.5902 153.841 8.20592 153.935 8.19998C154.066 8.19065 154.116 9.3622 154.147 13.1144L154.188 18.0406L154.728 18.6998C155.701 19.8866 156.324 20.0647 159.497 20.0647C162.772 20.0647 163.233 19.9019 164.445 18.3112C164.61 18.0958 164.665 17.2135 164.721 13.8575L164.792 9.67268L170.391 9.59633L170.304 18.8627L169.893 19.7042C168.704 22.1372 165.582 24.1121 162.388 24.4498C157.765 24.9384 152.92 24.1342 151.71 22.6759C151.615 22.5614 151.464 22.4681 151.374 22.4681C151.025 22.4681 149.447 20.6153 148.999 19.6788L148.542 18.7218L148.443 12.3254L150.043 11.1097Z" fill="black"/>
<path d="M220.511 9.24851C220.732 9.09326 221.105 8.79295 221.342 8.58087C222.161 7.84706 222.125 7.48399 222.125 16.4067V24.6254L219.403 24.5219C217.906 24.465 216.674 24.4099 216.666 24.398C216.657 24.3861 216.607 21.6638 216.556 18.3477L216.462 12.3186L217.562 11.4983C218.167 11.0461 218.987 10.4192 219.386 10.1045C219.785 9.7889 220.292 9.40375 220.511 9.24851Z" fill="black"/>
<path d="M226.57 9.81436C226.786 9.65827 227.345 9.22901 227.813 8.85998C229.124 7.82502 229.053 7.6477 229.053 11.9216V15.6551L229.459 16.5518C230.112 17.9957 231.218 18.8847 233.47 19.7755L234.281 20.0961L235.237 19.7144C238.799 18.2926 239.531 17.0939 239.623 12.5332L239.682 9.59633L245.242 9.67268V12.7122C245.242 16.6349 244.942 17.7471 243.315 19.8544C242.743 20.5958 241.367 21.9031 241.158 21.9031C241.117 21.9031 240.844 22.0651 240.551 22.2636C239.352 23.078 236.516 24.1775 234.947 24.4371C233.828 24.622 231.534 24.0324 229.336 22.9949C225.177 21.0318 223.276 17.9592 223.259 13.1754C223.257 12.3687 223.289 12.2737 223.645 12.0446C223.859 11.9063 224.129 11.7172 224.246 11.623C225.033 10.9918 226.24 10.0519 226.57 9.81436Z" fill="black"/>
<path d="M125.415 21.9956V9.58106L132.308 9.63534C140.191 9.69811 140.504 9.73462 142.806 10.851C150.256 14.4624 147.831 23.6142 139.201 24.4574C137.035 24.6686 137.043 24.6703 135.998 23.8458C135.481 23.4386 134.883 22.9771 134.667 22.8218C134.452 22.6666 133.908 22.2526 133.458 21.9031C133.009 21.5527 132.383 21.0793 132.068 20.8503C131.018 20.0885 131.113 20.0647 135.238 20.0647C138.83 20.0647 139.008 20.052 139.642 19.7466C141.813 18.7006 142.302 16.6824 140.734 15.242C139.629 14.2282 139.081 14.1264 134.726 14.1264H130.929V20.1351C130.929 23.4402 130.896 26.1447 130.856 26.1447C130.817 26.1447 130.318 25.7783 129.748 25.3312C129.179 24.8841 127.971 23.951 127.064 23.257L125.415 21.9956Z" fill="black"/>
<path d="M177.375 23.9671C168.549 20.8622 170.279 10.8654 179.836 9.74818C181.549 9.54798 218.025 9.57682 218.021 9.77872C218.019 9.87628 217.653 10.2182 217.208 10.5397C216.763 10.8612 215.526 11.7994 214.459 12.6249L212.518 14.1264H207.137V18.0805C207.137 21.7529 207.12 22.0439 206.881 22.1712C206.74 22.2467 206.312 22.5673 205.929 22.8829C205.547 23.1993 205.15 23.4581 205.045 23.4581C204.942 23.4581 204.162 23.9985 203.312 24.6602C202.462 25.321 201.734 25.8614 201.695 25.8614C201.656 25.8614 201.623 23.2214 201.623 19.9943V14.1264H193.435L193.352 12.154L190.735 14.1264H185.637C180.114 14.1264 179.618 14.1782 178.608 14.8653C176.642 16.2023 176.844 18.4487 179.041 19.6635L179.638 19.9943L193.494 20.1351L193.572 24.5889L187.241 24.5864C180.331 24.5838 178.869 24.4922 177.375 23.9671Z" fill="black"/>
<path d="M246.444 24.5906V9.60228H258.745C272.224 9.60228 271.577 9.55476 270.369 10.4506C270.002 10.7221 269.63 11.0088 269.541 11.0868C269.452 11.164 269.201 11.3549 268.982 11.511C268.764 11.6663 268.219 12.0955 267.771 12.4654C267.324 12.8344 266.894 13.1364 266.817 13.1364C266.739 13.1364 266.626 13.2196 266.563 13.3205C266.063 14.1341 266.135 14.1264 258.829 14.1264H252.099V14.9748H265.672V19.3581H252.099V20.0647H268.354L268.432 20.3829C268.476 20.5576 268.493 21.5595 268.47 22.6097L268.429 24.5185L246.444 24.5906Z" fill="black"/>
<path d="M174.273 31.5876C174.489 31.4324 174.886 31.1304 175.155 30.9166C175.426 30.7028 175.699 30.5272 175.764 30.5272C175.828 30.5272 175.899 32.7448 175.921 35.4543L175.961 40.3806L176.517 41.0584C177.49 42.2452 178.182 42.4666 181.095 42.5192L183.544 42.5642L184.418 42.146C186.485 41.1577 186.55 40.9778 186.637 36.0414L186.707 32.0118H192.08L192.128 40.9108L191.773 41.7549C189.961 46.0585 184.395 47.823 177.016 46.4326C175.211 46.0924 174.921 45.9821 173.558 45.1151C172.57 44.4874 171.212 42.974 170.747 41.9806L170.315 41.061L170.209 34.6985L170.823 34.237C171.161 33.9842 171.597 33.6516 171.791 33.4998C173.128 32.4546 173.935 31.8328 174.273 31.5876Z" fill="black"/>
<path d="M240.031 33.3556C241.005 32.6167 242.216 31.6784 242.721 31.2695C243.226 30.8615 243.698 30.5272 243.769 30.5272C243.846 30.5272 243.899 33.8484 243.899 38.728V46.9289H238.243L238.26 34.6985L240.031 33.3556Z" fill="black"/>
<path d="M284.619 40.5817V35.546C284.619 31.5562 284.655 30.5323 284.795 30.6154C285.072 30.7783 285.865 31.3679 287.054 32.2934C287.655 32.7609 288.625 33.515 289.212 33.9689L290.277 34.7943L290.203 46.8576L284.825 46.9348L283.06 45.5758C282.09 44.8284 281.149 44.1116 280.969 43.9818C280.79 43.8528 280.217 43.4117 279.697 43.0019C279.177 42.5922 278.624 42.1613 278.468 42.0433C278.312 41.9263 277.772 41.5157 277.266 41.1314C276.761 40.7479 276.22 40.3373 276.064 40.2194C275.909 40.1023 275.368 39.6807 274.863 39.2829L273.943 38.5592L273.907 43.5211C273.886 46.251 273.835 48.4839 273.793 48.4839C273.696 48.4839 270.129 45.8015 268.595 44.5739L268.215 44.2702L268.288 32.0118L273.406 31.9355L274.194 32.5395C274.626 32.8712 275.157 33.2707 275.372 33.426C275.588 33.5812 276.159 34.0266 276.642 34.416C277.126 34.8045 277.696 35.2499 277.912 35.4051C278.127 35.5612 278.668 35.9744 279.113 36.3247C279.559 36.6742 280.1 37.0882 280.315 37.2435C280.531 37.3987 281.068 37.8127 281.508 38.1622C281.948 38.5126 282.487 38.9257 282.703 39.0818C282.921 39.237 283.44 39.6383 283.858 39.9725L284.619 40.5817Z" fill="black"/>
<path d="M55.9938 38.2326C55.9938 34.8758 56.0387 32.0848 56.0939 32.0296C56.149 31.9745 57.3418 31.9617 58.7449 31.9999C60.148 32.0389 63.4591 32.1289 66.1025 32.2001C71.4045 32.3426 71.7574 32.3927 73.5177 33.2521C78.0054 35.4425 79.2312 40.6105 75.9931 43.6899C75.7149 43.9546 75.4307 44.3092 75.362 44.478C75.2941 44.6469 75.0795 44.8691 74.8852 44.9726C74.691 45.0761 74.1913 45.3611 73.7756 45.6055C72.5472 46.3265 70.9778 46.7499 69.1386 46.8576L67.5166 46.9518L66.5733 46.1976C66.0541 45.7836 65.4552 45.317 65.2423 45.1609C64.8919 44.9056 63.3479 43.7128 62.9882 43.4193C62.9085 43.354 62.6701 43.1869 62.458 43.0478C61.759 42.5897 62.0364 42.5455 65.6028 42.5455C69.4534 42.5455 70.1422 42.4293 71.1093 41.6158C71.3333 41.4274 71.5895 41.273 71.6794 41.273C71.9381 41.273 72.3877 40.1303 72.3911 39.4635C72.3979 38.1401 71.2985 36.933 69.6417 36.4426C69.3999 36.3714 67.5667 36.3578 65.4314 36.4129L61.6487 36.5088V42.4174C61.6487 46.2875 61.5995 48.3566 61.5045 48.4152C61.4248 48.4644 60.8929 48.1335 60.3211 47.6813C59.7493 47.2283 58.5421 46.2901 57.6378 45.5961L55.9938 44.3347V38.2326Z" fill="black"/>
<path d="M198.089 33.18C198.955 32.609 200.214 32.2553 201.977 32.089C203.745 31.9219 212.511 31.9168 212.511 32.0831C212.511 32.2739 217.495 32.2731 217.686 32.0822C217.893 31.8744 239.686 31.9584 239.756 32.1662C239.784 32.2519 239.535 32.5055 239.202 32.7312C238.869 32.9568 238.243 33.4285 237.812 33.7789C237.38 34.1292 236.849 34.5432 236.631 34.6985C236.413 34.8537 235.812 35.3152 235.295 35.7224L234.355 36.4638L229.053 36.4655V44.1972L228.169 44.8844C227.683 45.2627 226.784 45.9567 226.171 46.4267C225.557 46.8975 224.703 47.5524 224.272 47.8833C223.842 48.2133 223.437 48.4839 223.373 48.4839C223.308 48.4839 223.256 45.7802 223.256 42.4751V36.4655H219.521C215.023 36.4655 215.338 36.5521 215.338 35.3279C215.338 34.0656 215.341 34.0665 213.826 35.2575L212.526 36.2798L210.8 36.3731C209.85 36.424 207.534 36.4655 205.653 36.4655C201.977 36.4655 201.176 36.5919 200.239 37.3164C198.27 38.8383 198.682 40.9388 201.187 42.1545L202.095 42.5939L215.338 42.616V46.9263L207.951 46.8602C200.593 46.7948 200.559 46.7931 199.485 46.4496C195.036 45.0244 192.714 41.6938 193.554 37.9408C193.796 36.8634 195.235 35.0675 196.559 34.1912C196.973 33.9172 197.661 33.4625 198.089 33.18Z" fill="black"/>
<path fill-rule="evenodd" clip-rule="evenodd" d="M55.9938 14.1536C55.9946 16.6663 56.0353 19.4302 56.0854 20.2963L56.1761 21.87L57.1102 22.5919C57.6234 22.9881 58.7754 23.8797 59.6696 24.5728L61.2958 25.8325L61.3382 25.1403C61.362 24.7594 61.4417 24.4481 61.5147 24.4481C61.5944 24.4481 61.6487 23.4114 61.6487 21.9031V19.3581H67.1332C73.0486 19.3581 73.5024 19.3131 75.0277 18.5742C78.757 16.7681 78.8664 12.5036 75.2347 10.5397C73.6492 9.68286 73.7866 9.69388 64.5118 9.63789L55.9938 9.58614V14.1536ZM71.9797 14.828C72.3105 14.6515 72.336 14.33 72.0297 14.2121C71.9067 14.1654 69.5204 14.1264 66.7277 14.1264H61.6487V14.9748H66.6776C69.8733 14.9748 71.8058 14.9213 71.9797 14.828Z" fill="black"/>
<path fill-rule="evenodd" clip-rule="evenodd" d="M79.1074 9.77024C79.0683 9.87204 79.0531 12.6563 79.0734 15.9563L79.1108 21.9574L80.3222 22.8846C80.9881 23.3945 82.2157 24.3361 83.0496 24.9783C83.8835 25.6196 84.5944 26.1447 84.6308 26.1447C84.6665 26.1447 84.6953 23.7898 84.6953 20.9122V15.6797L85.8618 16.5722C87.2556 17.6377 89.871 19.6567 91.3403 20.8019C91.9239 21.2558 92.9733 22.0634 93.6732 22.5962C94.3731 23.1289 95.2324 23.7949 95.5819 24.0756L96.2182 24.5864L100.142 24.5881C102.3 24.5889 104.065 24.5363 104.065 24.4727C104.065 24.4082 103.326 23.7872 102.421 23.0941C99.3341 20.7256 97.3499 19.1893 97.2269 19.073C97.159 19.0086 97.327 18.8949 97.6001 18.8194C97.8733 18.7439 98.4909 18.4147 98.9719 18.0881C102.455 15.7221 101.329 11.2379 96.9257 9.9416C95.7983 9.60991 79.2304 9.45042 79.1074 9.77024ZM89.8455 14.9748C95.3037 14.9748 95.7805 14.9179 95.2867 14.3232C95.1527 14.1612 94.1958 14.1264 89.9092 14.1264H84.6953V14.9748H89.8455Z" fill="black"/>
<path fill-rule="evenodd" clip-rule="evenodd" d="M110.357 9.75411C100.873 11.047 99.1823 20.8995 107.919 23.9569C111.029 25.0453 117.68 24.7119 119.879 23.3571C123.061 21.3975 124.072 19.8883 124.071 17.0956C124.071 15.2742 123.901 14.7474 122.852 13.3247C122.369 12.6698 120.793 11.2989 120.524 11.2989C120.466 11.2989 120.318 11.2099 120.195 11.1004C118.975 10.0179 113.709 9.29685 110.357 9.75411ZM116.6 19.7067C119.381 18.3918 118.957 15.0596 115.91 14.2927C115.068 14.0806 111.109 14.1001 110.357 14.3198C107.353 15.1987 107.002 18.2765 109.743 19.7093C110.789 20.2565 115.442 20.2548 116.6 19.7067Z" fill="black"/>
<path fill-rule="evenodd" clip-rule="evenodd" d="M79.0929 32.3155C78.9877 32.7329 79.1642 46.6752 79.2753 46.7872C79.3144 46.8262 88.4551 46.8576 99.5886 46.8576H119.831L120.608 46.5115C125.567 44.305 125.386 39.7206 120.255 37.5718C119.949 37.4437 118.205 37.3733 113.978 37.319C108.569 37.2494 108.113 37.2248 107.969 36.9924C107.666 36.5046 108.11 36.4698 114.781 36.4681C120.695 36.4659 121.52 36.4699 121.995 36.0643C122.077 35.9941 122.148 35.9117 122.234 35.8149C122.312 35.7275 122.741 35.3907 123.188 35.0667L124.001 34.477V36.4655H132.202V42.4751C132.202 45.7802 132.237 48.4839 132.282 48.4839C132.325 48.4839 133.36 47.7042 134.581 46.7516C135.801 45.7989 137.038 44.842 137.329 44.624L137.858 44.2278V36.4655H140.487C143.267 36.4655 143.331 36.452 144.169 35.6927C144.257 35.6121 144.507 35.4196 144.722 35.2643C144.938 35.1082 145.533 34.6476 146.046 34.2395C146.558 33.8323 147.025 33.4981 147.083 33.4972C147.141 33.4972 147.192 35.8989 147.195 38.8341L147.2 44.1718L148.078 44.8284C150.414 46.5768 151.533 47.471 152.024 47.9817C152.412 48.3846 152.604 48.4974 152.715 48.3872C152.826 48.276 152.826 48.2065 152.715 48.1377C152.521 48.0173 152.51 45.8464 152.703 45.7268C152.792 45.6725 152.844 44.2397 152.844 41.8966V38.1537L153.658 38.7501C154.105 39.0776 154.757 39.5781 155.107 39.8614C155.456 40.1448 156.507 40.9617 157.44 41.6777C159.878 43.5466 161.608 44.8827 163.003 45.9745L164.224 46.9289H168.149C170.443 46.9289 172.073 46.8746 172.073 46.7982C172.073 46.727 171.644 46.3495 171.119 45.9601C170.594 45.5707 169.497 44.7325 168.68 44.0971C167.863 43.4617 166.726 42.5897 166.152 42.1596L165.109 41.3765L165.616 41.2018C166.658 40.8438 168.014 39.7936 168.48 38.9842C168.95 38.1673 169.024 37.8848 169.029 36.8897C169.035 35.529 167.725 33.2139 166.948 33.2139C166.883 33.2139 166.658 33.0858 166.446 32.9297C166.235 32.7736 165.585 32.503 165.003 32.3291L163.944 32.0118H135.737C108.575 32.0118 107.493 32.022 106.54 32.2782C102.341 33.4056 100.888 37.0136 103.515 39.791C103.918 40.2169 104.305 40.5664 104.375 40.5664C104.444 40.5664 104.678 40.697 104.894 40.8565C105.86 41.5708 106.975 41.6921 112.62 41.6963C118.306 41.7014 118.524 41.7193 118.459 42.1748L118.416 42.4751L104.904 42.5481L103.955 43.2887C103.432 43.6959 102.941 44.0751 102.864 44.1319C102.786 44.1888 102.324 44.5569 101.838 44.9506L100.955 45.6665V42.5455H84.6953V41.6972H98.4103V37.3139H84.6953V36.4655H91.5524C96.0299 36.4655 98.4103 36.4163 98.4103 36.3247C98.4103 36.2467 98.4714 36.183 98.5469 36.183C98.7937 36.183 103.786 32.2027 103.705 32.0703C103.657 31.994 98.6215 31.9414 91.4056 31.9414H79.1863L79.0929 32.3155ZM157.907 37.3139C163.283 37.3139 163.787 37.2562 163.32 36.6929C163.153 36.4918 162.542 36.4655 157.988 36.4655H152.844V37.3139H157.907Z" fill="black"/>
<path fill-rule="evenodd" clip-rule="evenodd" d="M253.655 32.0788C243.608 33.2046 241.866 43.3243 251.18 46.4581C252.834 47.0146 259.02 47.0578 260.721 46.5251C265.442 45.0464 267.919 41.48 266.79 37.789C265.514 33.6186 260.269 31.3382 253.655 32.0788ZM259.283 42.1214C262.253 40.7327 262.031 37.6167 258.896 36.6921C255.649 35.7351 251.481 36.81 250.904 38.7518C250.2 41.1195 251.958 42.448 255.89 42.5192L258.338 42.5642L259.283 42.1214Z" fill="black"/>
</svg>
